<svg xmlns="http://www.w3.org/2000/svg" viewBox="0 0 500 500"><g id="freepik--City--inject-64"><g id="freepik--city--inject-64"><path d="M468.9,333.75H31.1v-202L64.56,112.4,89.78,127v48.8l11.37-6.56v-19L113.51,143V70.6l37.58-21.7,17,9.8V80.36l16-9.23,17,9.81v41.24l15.49,8.91v-39l17-9.8L254.62,94.5v47l19.6-11.32V54.06l25.22-14.57,29.35,16.94V118.2l12.36,7.14v25l15.49,8.94v-85l21.1-12.18L403,76.69V97l12.36,7.14V159L430.81,168V131.42L456,116.85l12.86,7.43Zm-436.8-1H467.9V124.86L456,118l-24.23,14v37.72l-17.48-10.09V104.73L402,97.59V77.27l-24.23-14-20.1,11.61V161l-17.49-10.09v-25l-12.36-7.14V57L299.44,40.65l-24.22,14v76.14l-21.6,12.47V95.08L233.51,83.47l-16,9.23v40.12L200,122.75V81.51l-16-9.23-17,9.81V59.28l-16-9.23L114.51,71.18v72.43l-12.37,7.14v19L88.78,177.5v-50l-24.22-14L32.1,132.3Z" style="fill:#e0e0e0"></path></g></g><g id="freepik--Floor--inject-64"><ellipse id="freepik--floor--inject-64" cx="250" cy="355.78" rx="227.89" ry="131.57" style="fill:#f5f5f5"></ellipse></g><g id="freepik--Gears--inject-64"><g id="freepik--gear-icons--inject-64"><path id="freepik--Gear--inject-64" d="M115.36,229.23l-3.92-2.81a1.75,1.75,0,0,1-.59-1.67,17.94,17.94,0,0,0,.34-2.61c0-.57.72-1.28,1.58-1.6l3.36-1.26c.87-.32,1.45-1,1.31-1.51L116,212.55c-.14-.51-1-.83-1.8-.7l-3.79.55a2.29,2.29,0,0,1-2.06-.59,17.16,17.16,0,0,0-1.77-2.25,1.77,1.77,0,0,1-.2-1.81l1.79-4a1.28,1.28,0,0,0-.46-1.64l-4.62-2.6a1.47,1.47,0,0,0-1.78.55l-2.46,3.25a2.25,2.25,0,0,1-2,.81,16.46,16.46,0,0,0-2.19-.3,2.17,2.17,0,0,1-1.77-.94L91,198.36c-.19-.49-1.06-.71-1.93-.48l-4.12,1.05c-.87.22-1.51.84-1.42,1.37l.77,4.77c.08.53-.51,1.31-1.25,1.81-.46.31-.9.64-1.33,1a2.38,2.38,0,0,1-2.19.57l-4.27-1.84a1.42,1.42,0,0,0-1.71.64l-2.44,4.12a1.31,1.31,0,0,0,.2,1.71l3.92,2.8a1.76,1.76,0,0,1,.59,1.68,16.64,16.64,0,0,0-.33,2.61c0,.57-.72,1.28-1.59,1.6L70.52,223c-.86.32-1.45,1-1.31,1.51l1.46,5.22c.14.51,1,.83,1.8.7l3.8-.55a2.28,2.28,0,0,1,2,.59,17.16,17.16,0,0,0,1.77,2.25,1.76,1.76,0,0,1,.2,1.8l-1.79,4a1.27,1.27,0,0,0,.46,1.63l4.62,2.61a1.47,1.47,0,0,0,1.78-.55L87.82,239a2.22,2.22,0,0,1,2.06-.81,17.85,17.85,0,0,0,2.18.3,2.16,2.16,0,0,1,1.78.93l1.83,4.55c.19.49,1.06.71,1.93.48l4.12-1c.87-.23,1.51-.84,1.42-1.37l-.77-4.77c-.08-.53.51-1.31,1.25-1.82a15.68,15.68,0,0,0,1.33-1,2.39,2.39,0,0,1,2.19-.57l4.27,1.84a1.43,1.43,0,0,0,1.71-.65l2.44-4.11A1.31,1.31,0,0,0,115.36,229.23Zm-13-3a10.59,10.59,0,0,1-14.28,3.66A10,10,0,0,1,84.25,216a10.58,10.58,0,0,1,14.28-3.66A10,10,0,0,1,102.4,226.27Z" style="fill:#f0f0f0"></path><path id="freepik--gear--inject-64" d="M71.85,240.47l-3.2,1.3a1.29,1.29,0,0,1-1.25-.29A12.91,12.91,0,0,0,66,240.27a1.67,1.67,0,0,1-.36-1.57l.53-2.52c.14-.65-.05-1.26-.41-1.37L62,233.69c-.36-.11-.86.26-1.12.82L59.74,237a1.62,1.62,0,0,1-1.14,1,11.77,11.77,0,0,0-2,.21,1.28,1.28,0,0,1-1.18-.57l-1.72-2.62a.93.93,0,0,0-1.17-.35l-3.36,1.81a1.06,1.06,0,0,0-.35,1.29l1,2.73a1.62,1.62,0,0,1-.3,1.56,14.82,14.82,0,0,0-1,1.21,1.58,1.58,0,0,1-1.25.72l-3.46-.64c-.37-.07-.83.38-1,1l-.94,2.9c-.2.61-.07,1.23.28,1.39L45.28,250c.35.15.6.81.62,1.45a11.91,11.91,0,0,0,.09,1.19,1.68,1.68,0,0,1-.5,1.54l-2.75,1.89a1,1,0,0,0-.27,1.28L44,260.44a1,1,0,0,0,1.11.54l3.21-1.3a1.25,1.25,0,0,1,1.24.28A12.74,12.74,0,0,0,51,261.17a1.64,1.64,0,0,1,.37,1.57l-.53,2.52c-.14.65,0,1.26.41,1.37L55,267.76c.36.11.86-.26,1.11-.83l1.12-2.51a1.65,1.65,0,0,1,1.15-1,11.77,11.77,0,0,0,2-.21,1.29,1.29,0,0,1,1.18.57l1.72,2.62a.93.93,0,0,0,1.17.35l3.36-1.8a1.07,1.07,0,0,0,.34-1.3l-1-2.73a1.59,1.59,0,0,1,.31-1.56,13,13,0,0,0,1-1.21,1.6,1.6,0,0,1,1.25-.72l3.46.64c.37.07.84-.37,1-1l.94-2.9c.2-.61.07-1.23-.28-1.39l-3.19-1.36c-.36-.15-.6-.81-.62-1.45a11.91,11.91,0,0,0-.09-1.19,1.68,1.68,0,0,1,.5-1.54l2.75-1.88a1,1,0,0,0,.26-1.29L73,241A.94.94,0,0,0,71.85,240.47Zm-6.76,6.71a7.61,7.61,0,0,1-3.27,10.07,7.22,7.22,0,0,1-9.91-3,7.61,7.61,0,0,1,3.27-10.07A7.22,7.22,0,0,1,65.09,247.18Z" style="fill:#f0f0f0"></path><path id="freepik--gear--inject-64" d="M64,206.35l-2.81,1.14a1.1,1.1,0,0,1-1.09-.25,10.65,10.65,0,0,0-1.27-1.06,1.44,1.44,0,0,1-.32-1.37L59,202.6c.12-.57,0-1.11-.36-1.2l-3.26-1c-.32-.09-.76.23-1,.73l-1,2.2a1.44,1.44,0,0,1-1,.89,10.74,10.74,0,0,0-1.78.18,1.12,1.12,0,0,1-1-.5L48,201.62a.81.81,0,0,0-1-.31l-2.94,1.58a.92.92,0,0,0-.31,1.13l.9,2.4a1.39,1.39,0,0,1-.26,1.36,11.1,11.1,0,0,0-.89,1.06,1.37,1.37,0,0,1-1.1.63l-3-.56c-.32-.06-.73.33-.9.87l-.83,2.54c-.17.54-.06,1.08.25,1.21l2.79,1.2c.31.13.53.71.54,1.27,0,.35,0,.69.08,1a1.48,1.48,0,0,1-.43,1.35L38.47,220a.92.92,0,0,0-.23,1.13l1.37,2.68a.83.83,0,0,0,1,.47l2.81-1.14a1.08,1.08,0,0,1,1.09.25,10.56,10.56,0,0,0,1.27,1,1.46,1.46,0,0,1,.32,1.38l-.47,2.21c-.11.57,0,1.1.37,1.2l3.26,1c.32.1.76-.22,1-.72l1-2.2a1.44,1.44,0,0,1,1-.89,10.75,10.75,0,0,0,1.79-.18,1.1,1.1,0,0,1,1,.5l1.51,2.29a.8.8,0,0,0,1,.3l2.94-1.58a.93.93,0,0,0,.31-1.13l-.9-2.39a1.38,1.38,0,0,1,.26-1.36,11.22,11.22,0,0,0,.89-1.07,1.38,1.38,0,0,1,1.1-.62l3,.55c.32.06.73-.33.9-.86l.83-2.54c.17-.54.06-1.08-.25-1.22l-2.79-1.19a1.53,1.53,0,0,1-.55-1.28c0-.34,0-.69-.07-1a1.51,1.51,0,0,1,.43-1.36l2.41-1.64a.91.91,0,0,0,.24-1.13L65,206.82A.81.81,0,0,0,64,206.35Zm-5.93,5.88a6.66,6.66,0,0,1-2.86,8.82,6.31,6.31,0,0,1-8.68-2.62,6.65,6.65,0,0,1,2.86-8.81A6.32,6.32,0,0,1,58.05,212.23Z" style="fill:#f0f0f0"></path></g><g id="freepik--gear-icons--inject-64"><path id="freepik--gear--inject-64" d="M372.2,229.17l3.13,4.27a1.59,1.59,0,0,0,2,.53l4.51-2.48a2.64,2.64,0,0,1,2.47.38c.51.34,1,.66,1.57.95.87.47,1.61,1.27,1.57,1.87l-.33,5.34c0,.59.73,1.2,1.71,1.35l4.65.72c1,.15,1.92-.18,2.08-.74l1.53-5.21a2.43,2.43,0,0,1,1.86-1.22,19.86,19.86,0,0,0,2.37-.56,2.47,2.47,0,0,1,2.36.67l3.05,3.32a1.64,1.64,0,0,0,2,.42l4.82-3.38a1.41,1.41,0,0,0,.33-1.85l-2.41-4.19a2,2,0,0,1,0-2,19.36,19.36,0,0,0,1.71-2.66,2.51,2.51,0,0,1,2.2-.87l4.24.2c1,0,1.81-.39,1.92-1l1-5.91c.1-.58-.62-1.26-1.6-1.53l-3.84-1a2.56,2.56,0,0,1-1.92-1.6,18.68,18.68,0,0,0-.65-2.83,2,2,0,0,1,.47-1.92l4-3.5a1.46,1.46,0,0,0,0-1.91L416,198.54a1.57,1.57,0,0,0-2-.53l-4.51,2.49a2.64,2.64,0,0,1-2.47-.39c-.51-.34-1-.65-1.57-.94-.87-.48-1.61-1.28-1.57-1.87l.33-5.34c0-.6-.73-1.2-1.71-1.35l-4.65-.72c-1-.16-1.92.17-2.08.73l-1.53,5.21a2.4,2.4,0,0,1-1.86,1.22,22.18,22.18,0,0,0-2.38.56,2.48,2.48,0,0,1-2.35-.66l-3.05-3.32a1.63,1.63,0,0,0-2-.42l-4.82,3.37a1.41,1.41,0,0,0-.33,1.85l2.41,4.2a2,2,0,0,1,0,2,19.73,19.73,0,0,0-1.7,2.67,2.55,2.55,0,0,1-2.21.87l-4.23-.2c-1,0-1.82.39-1.92,1l-1,5.92c-.1.58.61,1.26,1.6,1.52l3.84,1a2.55,2.55,0,0,1,1.92,1.59,18.81,18.81,0,0,0,.65,2.84,2,2,0,0,1-.47,1.91l-4,3.51A1.46,1.46,0,0,0,372.2,229.17ZM389,206.88a11.72,11.72,0,0,1,16.14,2.5,11.12,11.12,0,0,1-2.77,15.73,11.74,11.74,0,0,1-16.14-2.5A11.12,11.12,0,0,1,389,206.88Z" style="fill:#f0f0f0"></path><path id="freepik--gear--inject-64" d="M418.86,240.54l-.47,3.77a1.13,1.13,0,0,0,.76,1.24l3.57.93a1.88,1.88,0,0,1,1.1,1.42c.1.43.22.85.36,1.27a1.87,1.87,0,0,1-.11,1.74l-2.8,2.62c-.31.29-.21,1,.23,1.55l2.07,2.67c.44.56,1.08.85,1.45.64l3.36-2a1.75,1.75,0,0,1,1.57.27,13.37,13.37,0,0,0,1.52.88,1.79,1.79,0,0,1,.89,1.51l0,3.24a1.16,1.16,0,0,0,.85,1.21l4.17.61a1,1,0,0,0,1.09-.8l.81-3.37a1.4,1.4,0,0,1,1-1,13.62,13.62,0,0,0,2.2-.55A1.84,1.84,0,0,1,444,259l2.11,2.2c.48.49,1.14.69,1.47.43l3.46-2.57c.34-.25.3-1-.08-1.58l-1.5-2.43a1.84,1.84,0,0,1-.22-1.77,12.49,12.49,0,0,0,1.06-1.8,1.4,1.4,0,0,1,1.19-.77l3.83.15a1,1,0,0,0,1-1l.47-3.78a1.14,1.14,0,0,0-.76-1.24l-3.58-.92a1.89,1.89,0,0,1-1.1-1.42,11.38,11.38,0,0,0-.35-1.27,1.93,1.93,0,0,1,.1-1.75l2.81-2.61c.31-.3.21-1-.23-1.56l-2.07-2.66c-.44-.57-1.09-.85-1.45-.64l-3.36,2a1.72,1.72,0,0,1-1.57-.28,16.25,16.25,0,0,0-1.52-.88,1.77,1.77,0,0,1-.9-1.5l0-3.24a1.16,1.16,0,0,0-.84-1.21l-4.18-.62a1,1,0,0,0-1.08.81l-.81,3.37a1.44,1.44,0,0,1-1,1,13.71,13.71,0,0,0-2.21.54,1.76,1.76,0,0,1-1.57-.63L429,229.23c-.47-.49-1.13-.69-1.47-.44l-3.46,2.57c-.33.25-.3,1,.09,1.59l1.5,2.42a1.85,1.85,0,0,1,.21,1.78,14.65,14.65,0,0,0-1.06,1.8,1.38,1.38,0,0,1-1.19.76l-3.82-.15A1,1,0,0,0,418.86,240.54Zm19.73-3.36a8.41,8.41,0,0,1,7.18,9.25,8,8,0,0,1-9.19,6.84,8.42,8.42,0,0,1-7.19-9.25A8,8,0,0,1,438.59,237.18Z" style="fill:#f0f0f0"></path><path id="freepik--gear--inject-64" d="M424.93,192.91l-1.5,3.83a1.22,1.22,0,0,0,.47,1.5l3.5,1.93a2.07,2.07,0,0,1,.78,1.79,11.22,11.22,0,0,0,0,1.42,2.07,2.07,0,0,1-.58,1.81l-3.64,2c-.41.23-.49,1-.18,1.69l1.46,3.35c.31.71.92,1.19,1.35,1.06l4.06-1.16a1.88,1.88,0,0,1,1.57.71,14.26,14.26,0,0,0,1.36,1.33,1.92,1.92,0,0,1,.54,1.82l-.91,3.39a1.27,1.27,0,0,0,.56,1.5l4.22,1.76a1.11,1.11,0,0,0,1.35-.55l1.76-3.33a1.51,1.51,0,0,1,1.33-.82,14.45,14.45,0,0,0,2.46,0,1.93,1.93,0,0,1,1.49,1.08l1.63,2.86c.36.65,1,1,1.43.86l4.31-1.77c.42-.18.57-.93.33-1.69l-.92-2.94a2,2,0,0,1,.25-1.93,14.13,14.13,0,0,0,1.59-1.6,1.52,1.52,0,0,1,1.46-.49l4,1.18a1.13,1.13,0,0,0,1.27-.77l1.5-3.83a1.22,1.22,0,0,0-.47-1.5l-3.5-1.93a2,2,0,0,1-.78-1.78,11.34,11.34,0,0,0,0-1.43c-.05-.77.17-1.58.58-1.8l3.64-2c.41-.23.48-1,.17-1.69l-1.45-3.35c-.31-.71-.92-1.19-1.35-1.06L456,193.53a1.88,1.88,0,0,1-1.57-.71,15.54,15.54,0,0,0-1.36-1.33,1.92,1.92,0,0,1-.54-1.82l.91-3.39a1.27,1.27,0,0,0-.56-1.5L448.64,183a1.1,1.1,0,0,0-1.35.56l-1.76,3.32a1.51,1.51,0,0,1-1.33.82,14.44,14.44,0,0,0-2.46,0,2,2,0,0,1-1.49-1.09l-1.63-2.86c-.37-.65-1-1-1.43-.86l-4.31,1.78c-.42.17-.57.92-.34,1.68l.93,2.95a2,2,0,0,1-.25,1.92,14.13,14.13,0,0,0-1.59,1.6,1.52,1.52,0,0,1-1.46.49l-4-1.18A1.13,1.13,0,0,0,424.93,192.91Zm21.6,1.74a9.12,9.12,0,0,1,5.07,11.63A8.64,8.64,0,0,1,440.12,211a9.12,9.12,0,0,1-5.06-11.63A8.63,8.63,0,0,1,446.53,194.65Z" style="fill:#f0f0f0"></path></g></g><g id="freepik--Puzzle--inject-64"><g id="freepik--puzzle-pieces--inject-64"><path d="M300.64,386.55c-19.95,12.65-36.57,22.76-45.2,23.06-6.83.22-9.71-3.86-10.15-7.4a8.72,8.72,0,0,0-4.6-6.67c-6.58-3.81-20-2.31-29.79,3.38s-12.43,13.38-5.85,17.19c1.88,1.07,5.39,2.43,11.56,2.64s13.17,1.94,12.85,5.85c-.6,6.56-15.43,14.81-41,27.95-5-2.91-9.63-5.66-13.68-8.14-15.11-9.14-25.06-15.15-34.7-14.64-8.27.44-12.92,5.42-14.42,9.55a12.38,12.38,0,0,1-5.58,6.34c-6.66,3.87-18.33,3.4-26-1.06s-8.49-11.18-1.83-15c1.88-1.09,5.31-2.53,11-3.21,7.15-.87,15.78-3.56,16.54-8.32,1-5.66-11.56-12.6-28.9-22.21-4.29-2.36-8.76-4.81-13.3-7.45l6.72-4c22.91-13.55,31.35-19.4,41.47-19.67,6.77-.22,9.68,3.86,10.12,7.4a8.73,8.73,0,0,0,4.57,6.66c6.61,3.81,20,2.32,29.82-3.37s12.44-13.39,5.83-17.2c-1.88-1.09-5.37-2.42-11.54-2.66s-13.17-1.94-12.82-5.85c.57-6.86,15-15.18,38.23-27.2l5,2.91c21.06,12.22,33.82,19.59,45.22,19,8.24-.43,12.92-5.41,14.42-9.55a12.3,12.3,0,0,1,5.55-6.34c6.67-3.86,18.37-3.37,26,1.06s8.51,11.19,1.85,15c-1.88,1.09-5.31,2.53-11,3.18-7.13.88-15.73,3.6-16.54,8.33-1,6.29,12.54,14.5,31.88,25.69Z" style="opacity:0.2"></path><path d="M382.1,341.87c-.38,4.76,7.65,6.78,14.64,7,5.55.25,8.65,1.42,10.29,2.34,5.79,3.35,3.26,10.23-5.64,15.35s-20.76,6.58-26.55,3.23a7.69,7.69,0,0,1-4-5.93c-.46-4.05-3.92-8.68-12.19-8.46-9.5.27-21.39,8.76-39.32,19.73-5.11,3.15-10.91,6.69-17.09,10.34L297.94,383c-20.21-11.64-36.16-20.84-35.18-27,.65-3.95,8.19-6.21,14.42-7s10.18-2.39,12.33-3.65c7.62-4.38,6.91-12-1.61-16.86s-21.63-5.34-29.25-1a14,14,0,0,0-6.31,7.13c-1.28,3.62-5.22,7.95-12.05,8.33-10.43.57-22.94-6.67-43.62-18.64l-4.44-2.59c6.45-3.29,12.66-6.34,18.18-9,18.91-9.25,31.4-15.37,31.86-20.81.38-4.77-7.64-6.78-14.64-7.05-5.55-.22-8.65-1.39-10.28-2.31-5.8-3.35-3.27-10.24,5.6-15.35s20.79-6.59,26.59-3.24a7.73,7.73,0,0,1,4,5.93c.47,4,3.95,8.68,12.19,8.47,9.26-.28,15.05-4.44,31.54-15.76,5.39-3.7,11-7.51,17-11.48,4.55,2.64,9,5.09,13.31,7.45,16.3,9,29.17,16.17,28.32,21.25-.62,3.92-8.16,6.21-14.39,7s-10.23,2.39-12.35,3.62c-7.65,4.41-6.91,12,1.6,16.92s21.66,5.34,29.31.93a14,14,0,0,0,6.28-7.13,13.31,13.31,0,0,1,12.08-8.33c8.6-.46,18.34,5.42,33,14.32,4.11,2.5,8.77,5.3,13.85,8.24-4.76,2.45-9.38,4.76-13.68,6.94C390.48,333,382.59,336,382.1,341.87Z" style="opacity:0.2"></path><path d="M242.28,264.08c.38-4.76-7.65-6.77-14.64-7.05-5.55-.21-8.65-1.38-10.29-2.31a5.46,5.46,0,0,1-3.11-4.79v24.84h0a5.48,5.48,0,0,0,3.1,4.79,13.35,13.35,0,0,0,2,.92C233.19,273.61,241.89,268.61,242.28,264.08Z" style="fill:#37474f"></path><path d="M240.29,315.15V340c6.83-.38,10.78-4.71,12.05-8.33V306.83C251.07,310.45,247.12,314.77,240.29,315.15Z" style="fill:#455a64"></path><path d="M196.67,296.52l-4.43-2.59v24.85l4.43,2.59c20.68,12,33.2,19.21,43.62,18.64V315.15C229.87,315.73,217.35,308.49,196.67,296.52Z" style="fill:#263238"></path><path d="M287.91,300.65c-8.49-4.92-21.63-5.33-29.25-.95a14.05,14.05,0,0,0-6.32,7.13v24.85a14.05,14.05,0,0,1,6.32-7.13c4.13-2.37,9.89-3.33,15.65-2.93,1-.19,1.94-.34,2.87-.45,6.32-.76,10.18-2.4,12.33-3.65C297.13,313.14,296.42,305.55,287.91,300.65Z" style="fill:#37474f"></path><path d="M329.2,262.59c2.13-1.23,6.05-2.86,12.36-3.62s13.77-3.05,14.39-7a2,2,0,0,0,.05-.48v24.89h0a2.13,2.13,0,0,1,0,.44c-.53,3.35-6.09,5.49-11.58,6.54a31.86,31.86,0,0,1-13.55-3.88C322.3,274.58,321.57,267,329.2,262.59Z" style="fill:#37474f"></path><path d="M297.94,355.1c-19.63-11.31-35.24-20.32-35.21-26.43h0v24.86h0c0,6.12,15.6,15.12,35.21,26.42l4.28,2.48V357.57Z" style="fill:#263238"></path><path d="M401.4,338.66c-8.87,5.15-20.76,6.59-26.56,3.24l-.4,24.62.4.23c5.8,3.35,17.69,1.91,26.56-3.23,5.68-3.27,8.75-7.26,8.73-10.59h0V328.28C410.05,331.57,407,335.46,401.4,338.66Z" style="fill:#455a64"></path><path d="M370.81,336c-.46-4.06-3.91-8.68-12.19-8.46v24.85c8.28-.22,11.73,4.41,12.19,8.46a7.66,7.66,0,0,0,3.63,5.7l.4-24.62A7.69,7.69,0,0,1,370.81,336Z" style="fill:#37474f"></path><path d="M319.31,347.23c-5.13,3.16-10.91,6.7-17.09,10.34v24.86c6.18-3.65,12-7.19,17.09-10.34,17.93-11,29.82-19.46,39.31-19.73V327.51C349.13,327.78,337.24,336.27,319.31,347.23Z" style="fill:#455a64"></path><path d="M425.37,287.54v24.85c-4.76,2.45-9.39,4.76-13.69,6.94-2.28,1.14-4.4,2.2-6.39,3.18a27,27,0,0,0-8.54-1.53c-7-.25-15-2.26-14.64-7,.49-5.85,8.38-8.85,29.57-19.49C416,292.3,420.61,290,425.37,287.54Z" style="fill:#455a64"></path><path d="M382.1,314c-.38,4.76,7.65,6.77,14.64,7,5.55.24,8.65,1.41,10.29,2.34,5.79,3.35,3.26,10.23-5.64,15.35s-20.76,6.58-26.55,3.23a7.69,7.69,0,0,1-4-5.93c-.46-4.05-3.92-8.68-12.19-8.46-9.5.27-21.39,8.76-39.32,19.73-5.11,3.15-10.91,6.69-17.09,10.34l-4.27-2.48c-20.21-11.65-36.16-20.84-35.18-27,.65-3.95,8.19-6.21,14.42-7s10.18-2.39,12.33-3.65c7.62-4.38,6.91-12-1.61-16.87s-21.63-5.33-29.25-.95a14,14,0,0,0-6.31,7.13c-1.28,3.62-5.22,7.95-12.05,8.33-10.43.57-22.94-6.67-43.62-18.64l-4.44-2.59c6.45-3.29,12.66-6.34,18.18-9,18.91-9.25,31.4-15.37,31.86-20.82.38-4.76-7.64-6.77-14.64-7-5.55-.22-8.65-1.39-10.28-2.32-5.8-3.34-3.27-10.23,5.6-15.34s20.79-6.59,26.59-3.24a7.73,7.73,0,0,1,4,5.93c.47,4,3.95,8.68,12.19,8.46,9.26-.27,15.05-4.43,31.54-15.75,5.39-3.7,11-7.51,17-11.48,4.55,2.64,9,5.09,13.31,7.45,16.3,9,29.17,16.17,28.32,21.25-.62,3.92-8.16,6.21-14.39,7s-10.23,2.39-12.35,3.62c-7.65,4.41-6.91,12,1.6,16.92s21.66,5.34,29.31.93a14,14,0,0,0,6.28-7.13A13.31,13.31,0,0,1,378.48,265c8.6-.46,18.34,5.42,33,14.31,4.11,2.51,8.77,5.31,13.85,8.25-4.76,2.45-9.38,4.76-13.68,6.94C390.48,305.12,382.59,308.11,382.1,314Z" style="fill:#455a64"></path><path d="M314.39,225.65c4,2.28,7.84,4.42,11.61,6.49l.7.38c8.23,4.57,15.33,8.5,20.4,12,6.53,4.51,7,6.51,6.88,7.18-.34,2.14-5.91,4.47-12.66,5.29s-10.82,2.56-13.11,3.88c-4.06,2.33-6.29,5.65-6.29,9.33,0,4.12,2.87,8.15,7.89,11.05a35.18,35.18,0,0,0,17.11,4.25,29,29,0,0,0,14.2-3.32,15.91,15.91,0,0,0,7.16-8.18c1.1-3,4.47-6.68,10.31-7,.28,0,.56,0,.85,0,7.84,0,17.57,5.89,31,14,2.9,1.77,6.58,4,10.72,6.43l-6.51,3.29-3.9,2c-3,1.49-5.66,2.82-8.12,4-16,7.94-22,10.91-22.55,17.07a5.86,5.86,0,0,0,1.55,4.46c3.48,3.91,11.66,4.6,15,4.72,5.12.22,7.93,1.25,9.38,2.07a3.53,3.53,0,0,1,2.11,3.07c0,2.65-3,6.11-7.75,8.82a36,36,0,0,1-17.23,4.77,14.91,14.91,0,0,1-7.34-1.55,5.61,5.61,0,0,1-3-4.41c-.54-4.73-4.43-10.25-13.63-10.25h-.61c-8.51.24-18.41,6.42-32.12,15-2.61,1.62-5.31,3.3-8.19,5.06-6,3.72-11.16,6.83-16.05,9.73l-3.26-1.89c-9.79-5.64-19-11-25.38-15.46-8.08-5.71-9-8.38-8.83-9.45.37-2.18,5.82-4.46,12.69-5.3,6.66-.81,10.8-2.57,13.09-3.9,4.05-2.33,6.28-5.64,6.28-9.32,0-4.12-2.88-8.14-7.88-11a35.13,35.13,0,0,0-17.12-4.25,28.89,28.89,0,0,0-14.14,3.3,16.1,16.1,0,0,0-7.2,8.19c-1.06,3-4.4,6.67-10.27,7l-1.05,0c-9.68,0-21.64-6.93-41.45-18.4l-1.27-.74c5.34-2.69,10.45-5.2,14.88-7.35,20.21-9.89,32.42-15.86,33-22.46a5.9,5.9,0,0,0-1.55-4.45c-3.46-3.9-11.65-4.62-15-4.75-5.11-.2-7.92-1.23-9.36-2a3.53,3.53,0,0,1-2.12-3.07c0-2.65,3-6.1,7.72-8.81a36.16,36.16,0,0,1,17.26-4.77,15,15,0,0,1,7.34,1.54,5.67,5.67,0,0,1,3,4.42c.54,4.72,4.43,10.24,13.62,10.24h.61c9.57-.28,15.46-4.32,31.2-15.13l1.41-1c4.24-2.91,9.82-6.72,16-10.78m-.07-2.35c-6,4-11.64,7.78-17,11.48C280.8,246.1,275,250.26,265.75,250.53h-.55c-7.85,0-11.18-4.53-11.64-8.47a7.73,7.73,0,0,0-4-5.93,17,17,0,0,0-8.33-1.8,38.25,38.25,0,0,0-18.26,5c-8.87,5.11-11.4,12-5.6,15.34,1.63.93,4.73,2.1,10.28,2.32,7,.27,15,2.28,14.64,7-.46,5.45-13,11.57-31.86,20.82-5.52,2.69-11.73,5.74-18.18,9l4.44,2.59c19.92,11.53,32.26,18.67,42.46,18.67l1.16,0c6.83-.38,10.77-4.71,12.05-8.33a14,14,0,0,1,6.31-7.13,26.91,26.91,0,0,1,13.14-3,33,33,0,0,1,16.11,4c8.52,4.9,9.23,12.49,1.61,16.87-2.15,1.26-6,2.89-12.33,3.65s-13.77,3-14.42,7c-1,6.12,15,15.31,35.18,27l4.27,2.48c6.18-3.65,12-7.19,17.09-10.34,17.93-11,29.82-19.46,39.32-19.73h.56c7.87,0,11.18,4.51,11.63,8.47a7.69,7.69,0,0,0,4,5.93,16.92,16.92,0,0,0,8.32,1.81,38.16,38.16,0,0,0,18.23-5c8.9-5.12,11.43-12,5.64-15.35-1.64-.93-4.74-2.1-10.29-2.34-7-.25-15-2.26-14.64-7,.49-5.85,8.38-8.84,29.58-19.48,4.3-2.18,8.92-4.49,13.68-6.94-5.08-2.94-9.74-5.74-13.84-8.25C397.36,270.72,387.81,265,379.44,265l-1,0a13.31,13.31,0,0,0-12.08,8.33,14,14,0,0,1-6.28,7.13,27,27,0,0,1-13.2,3.05,33,33,0,0,1-16.11-4c-8.51-4.92-9.25-12.51-1.6-16.92,2.12-1.23,6-2.86,12.35-3.62s13.77-3.05,14.39-7c.85-5.08-12-12.21-28.32-21.25-4.3-2.36-8.76-4.81-13.31-7.45Z" style="fill:#37474f"></path><path d="M300.64,358.64c-19.95,12.65-36.57,22.76-45.2,23.06-6.83.22-9.71-3.86-10.15-7.4a8.7,8.7,0,0,0-4.6-6.67c-6.58-3.81-20-2.31-29.79,3.38s-12.43,13.38-5.85,17.19c1.88,1.06,5.39,2.42,11.56,2.64s13.17,1.93,12.85,5.85c-.6,6.56-15.43,14.8-41,27.95-5-2.91-9.63-5.66-13.68-8.14-15.11-9.14-25.06-15.15-34.7-14.64-8.27.44-12.92,5.42-14.42,9.55a12.38,12.38,0,0,1-5.58,6.34c-6.66,3.87-18.33,3.4-26-1.06s-8.49-11.18-1.83-15c1.88-1.09,5.31-2.53,11-3.21,7.15-.87,15.78-3.56,16.54-8.32,1-5.66-11.56-12.6-28.9-22.21-4.29-2.36-8.76-4.81-13.3-7.45l6.72-4c22.91-13.55,31.35-19.4,41.47-19.68,6.77-.21,9.68,3.87,10.12,7.41a8.73,8.73,0,0,0,4.57,6.66c6.61,3.81,20,2.32,29.82-3.37s12.44-13.39,5.83-17.2c-1.88-1.09-5.37-2.42-11.54-2.66s-13.17-1.94-12.82-5.85c.57-6.86,15-15.18,38.23-27.2l5,2.91c21.06,12.22,33.82,19.59,45.22,19,8.24-.43,12.92-5.41,14.42-9.55a12.3,12.3,0,0,1,5.55-6.34c6.67-3.86,18.37-3.37,26,1.06s8.51,11.19,1.85,15.05c-1.88,1.09-5.31,2.53-11,3.18-7.13.87-15.73,3.6-16.54,8.33-1,6.29,12.54,14.5,31.88,25.69Z" style="fill:#fafafa"></path><path d="M189.87,296.87l4.08,2.36c20.72,12,33.22,19.27,44.87,19.27.49,0,1,0,1.46,0,9.23-.49,14.49-6.16,16.2-10.87a10.31,10.31,0,0,1,4.67-5.29A21,21,0,0,1,271.48,300a28.11,28.11,0,0,1,13.71,3.41c3.4,2,5.35,4.42,5.36,6.75S288.64,314,287,315s-4.9,2.32-10.26,2.93c-4,.48-17,2.63-18.28,10-1.25,7.6,11.67,15.49,32.87,27.74l5.4,3.11c-18.16,11.47-33.65,20.71-41.39,21h-.46c-5.12,0-7.31-2.92-7.64-5.64a10.68,10.68,0,0,0-5.58-8.17A21.67,21.67,0,0,0,231,363.53a44.17,44.17,0,0,0-21.11,5.74c-6.66,3.84-10.48,8.7-10.48,13.34,0,3,1.64,5.6,4.65,7.33s7.27,2.72,12.46,2.9c5,.2,9.28,1.34,10.6,2.83a1.08,1.08,0,0,1,.34.84c-.51,5.59-17.13,14.62-39,25.85-4.26-2.47-8.52-5-12.71-7.57-14.88-9-24.71-15-34.57-15-.42,0-.84,0-1.26,0-9.23.48-14.49,6.15-16.19,10.85a10.44,10.44,0,0,1-4.71,5.3,21,21,0,0,1-10.34,2.35A28.12,28.12,0,0,1,95,415c-3.39-2-5.34-4.41-5.34-6.74s1.92-3.89,3.53-4.82,4.88-2.31,10.2-2.95c4-.49,17.1-2.64,18.27-10,1.19-7.06-10.51-13.54-29.9-24.29l-.69-.38c-3.13-1.72-6.35-3.49-9.61-5.35l1.47-.88,2.3-1.37,7.91-4.7c16.65-9.94,24.25-14.47,32.6-14.7h.45c5.11,0,7.29,2.92,7.62,5.63a10.63,10.63,0,0,0,5.56,8.17A21.64,21.64,0,0,0,150.11,355a44,44,0,0,0,21.11-5.75c6.66-3.84,10.48-8.69,10.48-13.33,0-3-1.66-5.6-4.65-7.33s-7.19-2.72-12.47-2.93c-5-.18-9.24-1.31-10.57-2.82a1,1,0,0,1-.32-.87c.5-6,17.28-15.29,36.18-25.08m0-2.28c-23.24,12-37.66,20.34-38.23,27.2-.35,3.91,6.67,5.63,12.82,5.85s9.66,1.57,11.53,2.66c6.62,3.81,4,11.54-5.82,17.2A42,42,0,0,1,150.11,353a19.75,19.75,0,0,1-9.71-2.11,8.73,8.73,0,0,1-4.57-6.66c-.43-3.45-3.2-7.41-9.61-7.41h-.51c-10.12.28-18.56,6.13-41.47,19.68l-6.72,4c4.54,2.64,9,5.09,13.3,7.45,17.34,9.61,29.85,16.55,28.9,22.21-.76,4.76-9.39,7.45-16.54,8.32-5.66.68-9.09,2.12-11,3.21-6.66,3.84-5.87,10.59,1.83,15a30,30,0,0,0,14.69,3.68,23,23,0,0,0,11.34-2.62,12.38,12.38,0,0,0,5.58-6.34c1.5-4.13,6.15-9.11,14.42-9.55.39,0,.77,0,1.16,0,9.28,0,19,5.89,33.54,14.67,4,2.48,8.65,5.23,13.68,8.14,25.58-13.15,40.41-21.39,41-27.95.32-3.92-6.7-5.6-12.85-5.85s-9.68-1.58-11.56-2.64c-6.58-3.81-4-11.53,5.85-17.19a41.85,41.85,0,0,1,20.1-5.48,19.75,19.75,0,0,1,9.69,2.1,8.7,8.7,0,0,1,4.6,6.67c.43,3.45,3.17,7.41,9.63,7.41h.52c8.63-.3,25.25-10.41,45.2-23.06l-8.28-4.76c-19.34-11.19-32.92-19.4-31.88-25.69.81-4.73,9.41-7.46,16.54-8.33,5.71-.65,9.14-2.09,11-3.18,6.66-3.86,5.85-10.61-1.85-15.05A30.28,30.28,0,0,0,271.48,298a23.05,23.05,0,0,0-11.33,2.61,12.3,12.3,0,0,0-5.55,6.34c-1.5,4.14-6.18,9.12-14.42,9.55-.45,0-.9,0-1.36,0-11.06,0-23.63-7.27-43.86-19l-5-2.91Z" style="fill:#BA68C8"></path><path d="M90.83,392.78c-4.3-2.36-8.77-4.81-13.31-7.45V360.48c4.54,2.64,9,5.08,13.31,7.45,17.33,9.61,29.84,16.54,28.89,22.2-.76,4.77-9.39,7.46-16.54,8.33-.62.07-1.21.16-1.77.25C98.17,396.85,94.61,394.88,90.83,392.78Z" style="fill:#BA68C8"></path><path d="M90.83,392.78c-4.3-2.36-8.77-4.81-13.31-7.45V360.48c4.54,2.64,9,5.08,13.31,7.45,17.33,9.61,29.84,16.54,28.89,22.2-.76,4.77-9.39,7.46-16.54,8.33-.62.07-1.21.16-1.77.25C98.17,396.85,94.61,394.88,90.83,392.78Z" style="opacity:0.2"></path><path d="M159,351.87c-4.17-.82-7.57-2.48-7.32-5.23h0V322.06c0,3.72,6.83,5.37,12.83,5.57,6.18.25,9.66,1.58,11.54,2.67,6.61,3.81,4,11.54-5.83,17.2a41.76,41.76,0,0,1-11.16,4.38Z" style="fill:#BA68C8"></path><path d="M159,351.87c-4.17-.82-7.57-2.48-7.32-5.23h0V322.06c0,3.72,6.83,5.37,12.83,5.57,6.18.25,9.66,1.58,11.54,2.67,6.61,3.81,4,11.54-5.83,17.2a41.76,41.76,0,0,1-11.16,4.38Z" style="opacity:0.1"></path><path d="M94,416.69c-4.21-2.42-6.35-5.53-6.34-8.48h0V433h0c0,3,2.1,6.08,6.33,8.51,7.7,4.47,19.37,4.93,26,1.07V417.75C113.41,421.62,101.74,421.15,94,416.69Z" style="fill:#BA68C8"></path><path d="M94,416.69c-4.21-2.42-6.35-5.53-6.34-8.48h0V433h0c0,3,2.1,6.08,6.33,8.51,7.7,4.47,19.37,4.93,26,1.07V417.75C113.41,421.62,101.74,421.15,94,416.69Z" style="opacity:0.1"></path><path d="M120.08,417.75v24.86a12.46,12.46,0,0,0,5.57-6.34V411.41A12.41,12.41,0,0,1,120.08,417.75Z" style="fill:#BA68C8"></path><path d="M120.08,417.75v24.86a12.46,12.46,0,0,0,5.57-6.34V411.41A12.41,12.41,0,0,1,120.08,417.75Z" style="fill:#BA68C8"></path><path d="M174.77,416.5c-15.1-9.14-25.06-15.16-34.7-14.64-8.27.44-12.92,5.42-14.42,9.55v24.86c1.5-4.14,6.15-9.12,14.42-9.56,9.64-.51,19.6,5.5,34.7,14.64,4,2.48,8.65,5.23,13.68,8.14V424.64C183.42,421.72,178.82,419,174.77,416.5Z" style="fill:#BA68C8"></path><path d="M174.77,416.5c-15.1-9.14-25.06-15.16-34.7-14.64-8.27.44-12.92,5.42-14.42,9.55v24.86c1.5-4.14,6.15-9.12,14.42-9.56,9.64-.51,19.6,5.5,34.7,14.64,4,2.48,8.65,5.23,13.68,8.14V424.64C183.42,421.72,178.82,419,174.77,416.5Z" style="opacity:0.2"></path><path d="M188.45,424.64v24.85c25.58-13.14,40.41-21.39,41-27.95V396.69C228.86,403.25,214,411.49,188.45,424.64Z" style="fill:#BA68C8"></path><path d="M260.48,328.19c.82-4.74,9.42-7.46,16.54-8.33,5.72-.65,9.15-2.09,11-3.18,3-1.76,4.51-4.1,4.51-6.56v24.77h0c0,2.48-1.43,4.87-4.49,6.64-1.87,1.09-5.3,2.53-11,3.18h0C266.28,338,259.75,332.62,260.48,328.19Z" style="fill:#BA68C8"></path><path d="M260.48,328.19c.82-4.74,9.42-7.46,16.54-8.33,5.72-.65,9.15-2.09,11-3.18,3-1.76,4.51-4.1,4.51-6.56v24.77h0c0,2.48-1.43,4.87-4.49,6.64-1.87,1.09-5.3,2.53-11,3.18h0C266.28,338,259.75,332.62,260.48,328.19Z" style="opacity:0.2"></path><path d="M240.7,367.63c-6.59-3.81-20-2.31-29.8,3.38s-12.43,13.38-5.85,17.19c1.88,1.06,5.39,2.42,11.56,2.64a36.29,36.29,0,0,1,5.53.63c7.16-1.68,14.29-1.45,18.56,1a8.69,8.69,0,0,1,4.59,6.66V374.3A8.69,8.69,0,0,0,240.7,367.63Z" style="fill:#BA68C8"></path><path d="M240.7,367.63c-6.59-3.81-20-2.31-29.8,3.38s-12.43,13.38-5.85,17.19c1.88,1.06,5.39,2.42,11.56,2.64a36.29,36.29,0,0,1,5.53.63c7.16-1.68,14.29-1.45,18.56,1a8.69,8.69,0,0,1,4.59,6.66V374.3A8.69,8.69,0,0,0,240.7,367.63Z" style="opacity:0.2"></path><path d="M255.44,381.7v24.85c8.63-.3,25.25-10.41,45.2-23.06V358.63C280.69,371.29,264.07,381.4,255.44,381.7Z" style="fill:#BA68C8"></path><path d="M245.29,374.3v24.85c.44,3.54,3.32,7.62,10.15,7.4V381.7C248.61,381.92,245.73,377.84,245.29,374.3Z" style="fill:#BA68C8"></path><path d="M245.29,374.3v24.85c.44,3.54,3.32,7.62,10.15,7.4V381.7C248.61,381.92,245.73,377.84,245.29,374.3Z" style="opacity:0.1"></path><path d="M302.22,357.57v24.86l-1.58-.92V358.63l-8.27-4.76c-14.08-8.14-25.1-14.71-29.65-20.1v-5.1h0c0,6.11,15.58,15.12,35.21,26.43Z" style="fill:#263238"></path><path d="M411.68,294.48c4.3-2.18,8.92-4.49,13.68-6.94-5.08-2.94-9.74-5.74-13.85-8.25-14.69-8.89-24.43-14.77-33-14.31a13.31,13.31,0,0,0-12.08,8.33,14,14,0,0,1-6.28,7.13c-7.65,4.41-20.79,4-29.31-.93s-9.25-12.51-1.6-16.92c2.12-1.23,6-2.86,12.35-3.62s13.77-3.05,14.39-7c.85-5.08-12-12.21-28.32-21.25-4.3-2.36-8.76-4.81-13.31-7.45-6,4-11.64,7.78-17,11.48C280.8,246.1,275,250.26,265.75,250.53c-8.24.22-11.72-4.43-12.19-8.46a7.73,7.73,0,0,0-4-5.93c-5.8-3.35-17.69-1.9-26.59,3.24s-11.4,12-5.6,15.34c1.63.93,4.73,2.1,10.28,2.32,7,.27,15,2.28,14.64,7-.46,5.45-13,11.57-31.86,20.82-5.52,2.69-11.73,5.74-18.18,9l4.44,2.59c20.68,12,33.19,19.21,43.62,18.64,6.83-.38,10.77-4.71,12.05-8.33a14,14,0,0,1,6.31-7.13c7.62-4.38,20.76-4,29.25.95s9.23,12.49,1.61,16.87c-2.15,1.26-6,2.89-12.33,3.65s-13.77,3-14.42,7c-1,6.12,15,15.31,35.18,27l4.27,2.48c6.18-3.65,12-7.19,17.09-10.34,17.93-11,29.82-19.46,39.32-19.73,8.27-.22,11.73,4.41,12.19,8.46a7.69,7.69,0,0,0,4,5.93c5.79,3.35,17.68,1.91,26.55-3.23s11.43-12,5.64-15.35c-1.64-.93-4.74-2.1-10.29-2.34-7-.25-15-2.26-14.64-7C382.59,308.11,390.48,305.12,411.68,294.48Z" style="fill:#fafafa"></path><path d="M314.39,225.65c4,2.28,7.84,4.42,11.61,6.49l.7.38c8.23,4.57,15.33,8.5,20.4,12,6.53,4.51,7,6.51,6.88,7.18-.34,2.14-5.91,4.47-12.66,5.29s-10.82,2.56-13.11,3.88c-4.06,2.33-6.29,5.65-6.29,9.33,0,4.12,2.87,8.15,7.89,11.05a35.18,35.18,0,0,0,17.11,4.25,29,29,0,0,0,14.2-3.32,15.91,15.91,0,0,0,7.16-8.18c1.1-3,4.47-6.68,10.31-7,.28,0,.56,0,.85,0,7.84,0,17.57,5.89,31,14,2.9,1.77,6.58,4,10.72,6.43l-6.5,3.29-3.91,2c-3,1.49-5.66,2.82-8.12,4-16,7.94-22,10.91-22.55,17.07a5.86,5.86,0,0,0,1.55,4.46c3.48,3.91,11.66,4.6,15,4.72,5.12.22,7.93,1.25,9.38,2.07a3.53,3.53,0,0,1,2.11,3.07c0,2.65-3,6.11-7.75,8.82a36,36,0,0,1-17.23,4.77,14.91,14.91,0,0,1-7.34-1.55,5.61,5.61,0,0,1-3-4.41c-.54-4.73-4.43-10.25-13.62-10.25h-.62c-8.51.24-18.41,6.42-32.12,15-2.61,1.62-5.31,3.3-8.19,5.06-6,3.73-11.16,6.84-16.05,9.73l-3.26-1.89c-9.79-5.64-19-11-25.38-15.46-8.08-5.71-9-8.38-8.83-9.45.37-2.18,5.82-4.46,12.69-5.3,6.66-.81,10.8-2.57,13.09-3.9,4.05-2.33,6.28-5.64,6.28-9.32,0-4.12-2.88-8.14-7.88-11a35.13,35.13,0,0,0-17.12-4.25,28.89,28.89,0,0,0-14.14,3.3,16.1,16.1,0,0,0-7.2,8.19c-1.06,3-4.4,6.67-10.27,7-.35,0-.7,0-1.06,0-9.67,0-21.63-6.93-41.44-18.4l-1.27-.73c5.34-2.7,10.45-5.21,14.88-7.36,20.21-9.89,32.42-15.86,33-22.46a5.9,5.9,0,0,0-1.55-4.45c-3.46-3.89-11.65-4.62-15-4.75-5.11-.2-7.92-1.23-9.36-2a3.53,3.53,0,0,1-2.12-3.07c0-2.65,3-6.1,7.72-8.81a36.16,36.16,0,0,1,17.26-4.77,15,15,0,0,1,7.34,1.54,5.67,5.67,0,0,1,3,4.42c.54,4.72,4.43,10.24,13.62,10.24h.61c9.57-.28,15.46-4.32,31.2-15.13l1.41-1c4.24-2.91,9.82-6.72,16-10.78m-.07-2.35c-6,4-11.64,7.78-17,11.48C280.8,246.1,275,250.26,265.75,250.53h-.55c-7.85,0-11.18-4.53-11.64-8.47a7.73,7.73,0,0,0-4-5.93,17,17,0,0,0-8.33-1.8,38.25,38.25,0,0,0-18.26,5c-8.87,5.11-11.4,12-5.6,15.34,1.63.93,4.73,2.1,10.28,2.32,7,.27,15,2.28,14.64,7-.46,5.45-13,11.57-31.86,20.82-5.52,2.69-11.73,5.74-18.18,9l4.44,2.59c19.92,11.53,32.26,18.67,42.45,18.67.4,0,.78,0,1.17,0,6.83-.38,10.77-4.71,12.05-8.33a14,14,0,0,1,6.31-7.13,26.91,26.91,0,0,1,13.14-3,33,33,0,0,1,16.11,4c8.52,4.9,9.23,12.49,1.61,16.87-2.15,1.26-6,2.89-12.33,3.65s-13.77,3-14.42,7c-1,6.12,15,15.31,35.18,27l4.27,2.48c6.18-3.65,12-7.19,17.09-10.34,17.93-11,29.82-19.46,39.32-19.73h.56c7.87,0,11.18,4.51,11.63,8.47a7.69,7.69,0,0,0,4,5.93,16.92,16.92,0,0,0,8.32,1.81,38.16,38.16,0,0,0,18.23-5c8.9-5.12,11.43-12,5.64-15.35-1.64-.93-4.74-2.1-10.29-2.34-7-.25-15-2.26-14.64-7,.49-5.85,8.38-8.84,29.58-19.48,4.3-2.18,8.92-4.49,13.68-6.94-5.08-2.94-9.74-5.74-13.85-8.25C397.36,270.73,387.8,265,379.44,265l-1,0a13.31,13.31,0,0,0-12.08,8.33,14,14,0,0,1-6.28,7.13,27,27,0,0,1-13.2,3.05,33,33,0,0,1-16.11-4c-8.51-4.92-9.25-12.51-1.6-16.92,2.12-1.23,6-2.86,12.35-3.62s13.77-3.05,14.39-7c.85-5.08-12-12.21-28.32-21.25-4.3-2.36-8.76-4.81-13.31-7.45Z" style="fill:#455a64"></path></g></g><g id="freepik--Shadows--inject-64"><path id="freepik--Shadow--inject-64" d="M179.33,369.53c9-4.25,17.84-9,27.13-12.43,7.6-2.83,15.58-4.84,22.62-8.87a20.55,20.55,0,0,0,6.77-5.71,9.92,9.92,0,0,0,1.66-8.46c-1.13-3.63-4.4-4.83-7.86-5-8.53-.35-17,1.86-24.87,5.24s-15.15,7.89-22.42,12.38a87.88,87.88,0,0,1-21.72,10.05c-8.09,2.42-16.44,4.41-23.87,8.56A11.65,11.65,0,0,0,132,369.5c-2.34,4.23,1.58,8.61,5.63,9.49a38.83,38.83,0,0,0,14.77-.06C161.83,377.3,170.64,373.64,179.33,369.53Z" style="opacity:0.15"></path><path id="freepik--shadow--inject-64" d="M332.28,276.55c-2.1-2.54-5.71-3.65-9.47-3.1s-7.22,2.48-10.56,4.37c-5.53,3.14-11.06,6.27-16.31,9.88-2.7,1.87-6,3.65-8.22,6.12-1.47,1.66-3,3.5-3.24,5.71-.45,3.84,2.83,6,6.07,6.81a20.33,20.33,0,0,0,8,.18c6.72-1,13-3.94,18.86-7.21,5.51-3.06,11.2-6.08,14.73-11.53a10.72,10.72,0,0,0,2-5.78A8.47,8.47,0,0,0,332.28,276.55Z" style="opacity:0.15"></path></g><g id="freepik--Characters--inject-64"><g id="freepik--Character--inject-64"><g id="freepik--Chartacter--inject-64"><g id="freepik--Bottom--inject-64"><path d="M333.22,250.16a10,10,0,0,1,6,3.19c2.15,2.74,6.92,10.93,7.86,11.84a6.7,6.7,0,0,1-2.13,2.24l-2.55-2.88c-.63-.52-.9-1.1-.87.6s.27,3.45.23,6c0,2,.38,5.8-3.06,9.64-3.21,3.59-6.66,5.32-9.06,5.65-1.43.2-3.94-.13-3.78-3,.08-1.51.76-6.48,1-9.23S333.22,250.16,333.22,250.16Z" style="fill:#263238"></path><path d="M333.9,250.79a11.47,11.47,0,0,1-2.72-3.6c-.62-1.26-3.78-8.23-7.56-17.9-4.88-12.43-13-21.61-15.51-26.28a98.08,98.08,0,0,1-7.06-15.9L291,193.83l-13.3-.24c-.13,2,.68,4.6,2.16,7.66h0l0,.08c.13.27.28.56.43.84,3,5.82,8,12.86,13.65,20l.13.17.2.25c5.44,6.88,11.41,13.88,16.63,19.94v-.15a136.74,136.74,0,0,1,11.54,15.2c4.72,7.73,4.4,14.5,4.43,18.63,0,2.58,2,3.07,4.73.82a13.78,13.78,0,0,0,5.26-11.34C337.45,256.86,336.68,254.32,333.9,250.79Z" style="fill:#b16668"></path><path d="M300.75,194l-23.1-.43c0,.25,0,.52,0,.79,0,.1,0,.21,0,.31s0,.36.05.55,0,.27.08.41l.09.5c0,.16.09.33.13.5l.12.45c0,.05,0,.1.05.14s5.84,4,16.65,5.84c0,0,.33,17.24,3.19,24.2l0,0v0l3.21,3.89C301.73,220.85,300.75,194,300.75,194Z" style="fill:#9a4a4d"></path><path d="M316.94,268.46a11.53,11.53,0,0,1,3.14,6.48c.32,3.73-.12,13.93.17,15.31a6.44,6.44,0,0,1-3,.77l-.58-4.1c-.25-.84-.16-1.51-1.06,0s-1.65,3.28-3.05,5.54c-1.12,1.79-2.83,5.47-7.81,6.93-4.64,1.37-8.48.91-10.67-.19-1.31-.65-3.24-2.43-1.56-4.91.89-1.32,4.16-5.41,5.86-7.76S316.94,268.46,316.94,268.46Z" style="fill:#263238"></path><path d="M304.3,268.34c.24-9.76-8.94-54.36-6.47-75.31l26.19-.32a112.87,112.87,0,0,0-2.71,18.51c-.43,5.7,1.4,18.74-1.26,32.84a190.37,190.37,0,0,0-3,19.91c0,1.51-.16,4.71-.09,5.54.42,4.82-.31,7.56-5.6,15.2-1,1.47-3.48,6.24-10.58,7.17-3.49.45-4.91-1.17-3.53-3.51C299.51,284.62,304.07,278.09,304.3,268.34Z" style="fill:#b16668"></path><path d="M321.31,211.22c-.05,2.22.08,4.42.2,6.63s.2,4.43.27,6.64a107.54,107.54,0,0,1-.48,13.31c-.23,2.21-.59,4.4-1,6.58l-1.2,6.5q-.59,3.26-1.1,6.53c-.35,2.18-.7,4.36-.91,6.56a127,127,0,0,1,1.5-13.19c.64-4.38,1.64-8.68,2-13.07.26-2.18.39-4.39.51-6.59s.1-4.41.12-6.62,0-4.42-.08-6.63S321.1,213.43,321.31,211.22Z" style="fill:#9a4a4d"></path><path d="M297.45,204.69a82.08,82.08,0,0,1,.38-11.66l26.19-.32a83.34,83.34,0,0,0-1.68,8.81h0S312.28,206.59,297.45,204.69Z" style="fill:#9a4a4d"></path><path d="M278.12,150.42a153.4,153.4,0,0,1,2.84-17.9c1-4.52,2-8.44,2.71-11.9,7.61,5.07,26.53,5.53,35.24-.18a90.76,90.76,0,0,1,9.21,16.07c3,7.08,4.23,11.5,4.09,20.29-.13,8-3.72,31.68-7,41.78-8.85,4.91-39.88,3.78-48.66-5C276.56,193.57,277.07,158.75,278.12,150.42Z" style="fill:#455a64"></path></g><g id="freepik--Top--inject-64"><g id="freepik--Head--inject-64"><path d="M286.32,41.3a4.72,4.72,0,0,1,.5-2.95c1.1-2,3.53-2.94,5.81-3.17a9.94,9.94,0,0,0,3.65-.68C297.3,34,298,33,299,32.36a5.68,5.68,0,0,1,3.84-.7,7.58,7.58,0,0,1,4.22,1.95,7.57,7.57,0,0,0,3.14,1.92c2.85.82,4.89-.2,7.56,2.12a7.24,7.24,0,0,1,2.19,6c2,1.09,4.87,8,1.3,16-1.83,4.08-4.17,6-7.05,9.49l-2.93.14c-1.08-2.44-3.55-1.86-5.86-2.32-1.42-.56-2.24-2-3.59-2.63a10.89,10.89,0,0,0-4-.67,7.68,7.68,0,0,1-4.35-1.23,7,7,0,0,1-1.81-3c-.3-.71-.84-3.09,0-3.68-1.31,1-3.91,1.52-5.31.49a2.88,2.88,0,0,1-1.09-2.85,2.32,2.32,0,0,0,.11-.64,1.39,1.39,0,0,0-.72-1.05c-.38-.24-.8-.38-1.17-.63a3.22,3.22,0,0,1-1-3.55,6.21,6.21,0,0,1,2.43-3c.68-.49,1.48-1,1.61-1.84A4,4,0,0,0,286.32,41.3Z" style="fill:#263238"></path><path d="M297.49,78.57l1.52-.26c1.3-.22,1.12-1.7,1.18-3l0-2a8.89,8.89,0,0,1-6.62-1.76c-2.8-2.23-4.46-6.85-4.43-11.89,0-3.35.82-5,.74-5.7-.49-4.47-.18-5.28.76-7.64,1.71-3.77,6.37-5.33,8.59-1.46,5.63-4.82,12.35.87,12.42,7.79-.53,5.74,1.23,5.94,2.35,5.93,1.48-3.63,5.16-3.74,6.81-1.52,1.5,2,1.61,5.22-1,8.26s-5.52,1.27-5.58.69c0,0-.09,7.71-.08,9.24s.22,2.43,2.15,3h0l2.78.78s-.14.2-.43.54c-.65.84-2.08,2.67-4.49,5.8a133.29,133.29,0,0,0-18.43,9.4,85.14,85.14,0,0,1-3.4-9.89A36.6,36.6,0,0,1,297.49,78.57Z" style="fill:#b16668"></path><path d="M303.39,63.48l-4.3,1.36a2.21,2.21,0,0,0,2.79,1.55A2.37,2.37,0,0,0,303.39,63.48Z" style="fill:#9a4a4d"></path><path d="M303.11,64.47a2.48,2.48,0,0,0-2.48,1.93,2.13,2.13,0,0,0,1.25,0,2.34,2.34,0,0,0,1.57-1.87Z" style="fill:#f28f8f"></path><path d="M291.23,51.59l3.31-1.05a1.67,1.67,0,0,0-2.12-1.16A1.82,1.82,0,0,0,291.23,51.59Z" style="fill:#263238"></path><path d="M307.07,52.43l-3.27-1.27a1.69,1.69,0,0,1,2.21-1A1.84,1.84,0,0,1,307.07,52.43Z" style="fill:#263238"></path><path d="M295.2,54.87a1.46,1.46,0,0,1-1.31,1.54,1.37,1.37,0,0,1-1.52-1.25,1.45,1.45,0,0,1,1.31-1.54A1.37,1.37,0,0,1,295.2,54.87Z" style="fill:#263238"></path><path d="M305.48,55.49a1.5,1.5,0,0,1-1.33,1.58,1.4,1.4,0,0,1-1.55-1.29,1.49,1.49,0,0,1,1.33-1.57A1.4,1.4,0,0,1,305.48,55.49Z" style="fill:#263238"></path><path d="M300.22,73.32c5.5-.54,10.78-2,12.13-5.39a5.65,5.65,0,0,1-3.15,4.68,19.9,19.9,0,0,1-9,2.33Z" style="fill:#9a4a4d"></path><polygon points="294.5 59.59 299.56 61.46 300.22 51.95 294.5 59.59" style="fill:#9a4a4d"></polygon></g><path d="M276.37,97c-5.95,16.73-8.69,23.73-8.69,23.73s-19.06,17.07-22.2,19.33-9,5.8-9,5.8c-3.57,2.47-4.84,4-5.75,6.3s.48,6.44,2,8.25,2.82,3.11,4.76,3.34h0a13.19,13.19,0,0,0,3.77-.07c.45-.22.86-.54,1.33-.72s1.22-.23,1.77-.5c.89-.43,1.35-1.44,2.16-2,.4-.27.86-.42,1.25-.69a3.8,3.8,0,0,0,.85-.8,2.47,2.47,0,0,0,.67-1.81,3,3,0,0,0-.29-.78l-.51-1.08a3.67,3.67,0,0,1,.48-2.08c.61-.79,2.68-3.36,2.68-3.36h0l.17-.12c1.23-1,2.12-2,3.06-2.8a38.69,38.69,0,0,1,5.06-3.48c9.42-5.71,15.24-10.07,18.8-12.27s4.07-4.37,6.7-8.88c4.47-7.67,9.42-19,9.42-19l.39-25.67C284.36,78.33,280.26,86.05,276.37,97Zm-38.93,66.75h0Zm.15,0,.45.06Z" style="fill:#b16668"></path><path d="M256.79,130.15l-4.37,3.64a14.26,14.26,0,0,1,4.76,4.47,15.38,15.38,0,0,1,2.24,5.87l4.86-3s0-2.63-2.46-6.32A15.12,15.12,0,0,0,256.79,130.15Z" style="fill:#BA68C8"></path><path d="M256.79,130.15l-4.37,3.64a14.26,14.26,0,0,1,4.76,4.47,15.38,15.38,0,0,1,2.24,5.87l4.86-3s0-2.63-2.46-6.32A15.12,15.12,0,0,0,256.79,130.15Z" style="fill:#fff;opacity:0.7000000000000001"></path><path d="M295.2,77.31c-6.23.84-10.82,2.14-14.54,9.32s-13.06,33.22-13.06,33.22l-12.89,11.68a14.54,14.54,0,0,1,4.93,4.55,17.23,17.23,0,0,1,2.51,6.7s12.54-8.13,16.69-10.73,5.41-5.27,9.63-12.89,7.45-13.75,7.45-13.75Z" style="fill:#263238"></path><g id="freepik--Chest--inject-64"><path d="M298.93,78.33s-2.45,5.1-.78,8.18c8.24-.94,15.2-4.77,18-7.35l6.93,1.09s4.53,8.65,3.12,16-7.3,24.18-7.3,24.18c-7.84,11.39-34.53,5.37-35.24.18,0,0-.79-6.46-1.45-11.78,0,0-3.74-3.59-3.92-8.39-.2-5,1.88-8.57,7-13.77a62.71,62.71,0,0,1,9.64-8.18Z" style="fill:#BA68C8"></path><path d="M298.93,78.33s-2.45,5.1-.78,8.18c8.24-.94,15.2-4.77,18-7.35l6.93,1.09s4.53,8.65,3.12,16-7.3,24.18-7.3,24.18c-7.84,11.39-34.53,5.37-35.24.18,0,0-.79-6.46-1.45-11.78,0,0-3.74-3.59-3.92-8.39-.2-5,1.88-8.57,7-13.77a62.71,62.71,0,0,1,9.64-8.18Z" style="fill:#fff;opacity:0.7000000000000001"></path><path d="M313.84,107.79a10.61,10.61,0,0,1-9.14,7,11.18,11.18,0,0,1-10.28-4.48s1.44,7.68,10.56,6.33S313.84,107.79,313.84,107.79Z" style="fill:#BA68C8;opacity:0.30000000000000004"></path><path d="M314.28,76.22s-6.8,15.83-9.09,23.47-1.1,13.74-.24,27.57c.67,10.64,1.83,26.7,1.83,26.7s20.19-.29,26.39-9.29c-1.65-5.29-6.83-17.63-8.16-21s-.68-6.36,1.47-14.16,5.63-12.08,5.53-17.86a16.14,16.14,0,0,0-5.6-11.43Z" style="fill:#37474f"></path><path d="M300,77.52a1.27,1.27,0,0,1-.85.8s-13.7,13.17-14.65,26.81-1.81,43.52-1.81,43.52-1.49-.69-4.39-3.85c.62-6.2,2.76-30.67,2.18-33.47s-7.26-9.19-1.14-18.3S295.2,77.31,295.2,77.31l5-1.09A3.25,3.25,0,0,1,300,77.52Z" style="fill:#37474f"></path><path d="M293.24,80.85c-.87.79-1.74,1.58-2.57,2.4-1.68,1.63-3.35,3.27-5,5-.8.86-1.6,1.72-2.37,2.6-.39.44-.77.89-1.14,1.36a4.63,4.63,0,0,0-1,1.62,5.23,5.23,0,0,0-.11,1.88,10.37,10.37,0,0,0,.34,1.78,22,22,0,0,0,1.12,3.16,14.35,14.35,0,0,0-2.31,3.78,2.44,2.44,0,0,0-.14.62,3.27,3.27,0,0,0,0,.63c0,.39.1.77.16,1.15.13.75.28,1.5.44,2.24.64,3,1.4,5.91,2.23,8.84-.59-3-1.18-6-1.72-8.93-.13-.75-.25-1.49-.35-2.24,0-.37-.1-.74-.11-1.1a2.07,2.07,0,0,1,.12-1,14.51,14.51,0,0,1,2.37-3.71l.14-.18-.09-.21a21.88,21.88,0,0,1-1.12-3.25,10.73,10.73,0,0,1-.3-1.66A4.54,4.54,0,0,1,282,94a4.25,4.25,0,0,1,.81-1.36c.36-.46.73-.9,1.11-1.34.75-.89,1.54-1.75,2.32-2.61,1.57-1.73,3.16-3.45,4.78-5.13s3.22-3.39,4.94-5C295,79.29,294.11,80.07,293.24,80.85Z" style="fill:#263238"></path><path d="M317.3,99V93.39c-.05-5-.11-9.91-.28-14.87-.21,5-.31,9.92-.4,14.89l0,3.72,0,1.86v.46a1,1,0,0,1,0,.35,2,2,0,0,1-.38.66,8.62,8.62,0,0,1-2.95,1.9,25.08,25.08,0,0,1-3.44,1.21l-.41.11.15.38a42.77,42.77,0,0,1,1.56,4.59c.1.39.19.78.25,1.17a2.83,2.83,0,0,1,.05,1.07l0,.1-.07.14-.95,1.92c-.72,1.46-1.46,2.91-2.16,4.39L306,121.85l2.4-4.27c.8-1.42,1.57-2.86,2.35-4.3l.58-1.07.29-.54.22-.41.06-.19a3.43,3.43,0,0,0,0-1.35,9.9,9.9,0,0,0-.24-1.23,42.62,42.62,0,0,0-1.39-4.32,26.67,26.67,0,0,0,3.19-1.09,8.55,8.55,0,0,0,3.22-2.13,2.58,2.58,0,0,0,.52-1,2.22,2.22,0,0,0,.07-.57Z" style="fill:#263238"></path></g><path d="M343.11,118c.87,6.54,1.05,7.65.63,12-.31,3.26-.65,3.81-1.88,9.75s-4.33,16.78-4.28,18.36a26.36,26.36,0,0,1,0,4.53,19.11,19.11,0,0,1-1.25,5.23c-.45,1.15-.74,2.42-1.27,3.54a13.91,13.91,0,0,1-1.62,2.13c-.6.78-.81,1.78-1.55,2.48-1.28,1.22-2.63,1.4-3.85,2-.53.77-1.41,2.41-2,3.14-1.51,1.85-1.85-1.18-1.8-2.21a15.9,15.9,0,0,1,.62-3.26,75.15,75.15,0,0,0,1.86-8.12c.08-.49.67-2.5-.13-2.49a1,1,0,0,0-.66.39c-.55.62-.91,1.39-1.4,2.06a12.82,12.82,0,0,1-1.29,1.46,4.38,4.38,0,0,1-1.3,1c-.52.22-2.42.37-2.5-.52a.92.92,0,0,1,.1-.42c.39-.91.86-1.8,1.26-2.71a26.63,26.63,0,0,0,1.1-2.8,22.89,22.89,0,0,1,3.4-7.92c3.22-4.44,3.89-30.65,3.89-30.65l-4.32-18.06a39.76,39.76,0,0,1-2.49-15.2c.28-8.58,3.49-10.87,3.49-10.87,6.65,2.67,10.27,4.76,12,10.88S342.52,113.6,343.11,118Z" style="fill:#b16668"></path><path d="M328,141.67l-.5,5.14s2.25-.62,6.92.69c3.69,1.05,5,2.87,5,2.87l1.21-5S336.72,141.19,328,141.67Z" style="fill:#BA68C8"></path><path d="M328,141.67l-.5,5.14s2.25-.62,6.92.69c3.69,1.05,5,2.87,5,2.87l1.21-5S336.72,141.19,328,141.67Z" style="fill:#fff;opacity:0.7000000000000001"></path><path d="M344,122.67c-.19-1.55-1.16-9.68-3.57-21.57-2.28-11.3-2.83-12.56-4.79-15.16-1.65-2.18-3.36-3.8-9.18-5.72,0,0-4.74,2.83-4.85,10.28-.11,7.1,2.94,17,2.94,17l4.11,18.31-1,18.23c3.17-1.11,10.91.66,12.56,3.8,0,0,2-7.48,3.23-13.27A35.48,35.48,0,0,0,344,122.67Z" style="fill:#263238"></path></g></g></g><g id="freepik--character--inject-64"><g id="freepik--Arm--inject-64"><path id="freepik--arm--inject-64" d="M141.25,189.24l6.07-22.51c2.8-11.56-.84-26.17-.84-26.17-5.19.61-9.79,3-12.31,9.55s-6.19,29-7.07,33.89a44,44,0,0,0-.5,12.8c.45,5.45,3.19,15.23,4.28,20.57.5,2.47.81,4.86,1.14,7.38a57.07,57.07,0,0,0,2.08,7.63,7,7,0,0,0,2,3.14c.58.55,1.4.65,2,1.17s.65,1.37,1.44,1.81,1.9.25,2.66.75a23.65,23.65,0,0,0,2.34,1.69,4.89,4.89,0,0,1,2,1.27c.48.58.92,1.86,1.84,1.81s1.25-1,1.34-1.9a7.86,7.86,0,0,0-1.42-4.72,43.55,43.55,0,0,0-2.77-4.41,10.88,10.88,0,0,1-2-4.46c-.27-1.07-.11-2.43,1.23-1.75,1.59.81,3.23,2.44,5.18,2.19,1.36-.16,1.48-1.22.74-2.14a38.93,38.93,0,0,1-3.31-4.8c-1-1.71-1.82-3.52-2.87-5.2a23.66,23.66,0,0,0-1.88-2.5c-1.85-2.24-1.64-5.16-1.74-7.88C140.68,202.64,141.08,194.11,141.25,189.24Z" style="fill:#ffa8a7"></path><path d="M128.05,206.59l1.2,5.49s2.09,1.3,6.43.7,5.69-2,5.69-2l-.25-5.78Z" style="fill:#f0f0f0"></path><path d="M144.89,137.59c-7.54.92-10.19,5.6-12.48,13.26-2.36,7.86-4.9,25.72-5.54,29.44A51.27,51.27,0,0,0,125.76,194a126,126,0,0,0,2.45,14.45s2,1.12,6.23.91c5.88-.3,7-2.12,7-2.12l.38-17.9,8.39-28.06Z" style="fill:#455a64"></path></g><g id="freepik--bottom--inject-64"><path d="M233.62,329.72c.55-.25,1,1.2.87,2-.39,2.35-2.54,5.46-6.36,7.81s-12.23,3.95-14.7,4.68-6.28,3.46-8.58,4.7c-4.2,2.25-7.63,2-9.54,1a3,3,0,0,1-1.28-2c-.5-1.78-.46-2.19-.27-2.24Z" style="fill:#263238"></path><path d="M192.65,340.37a24.21,24.21,0,0,0,1.58,6.51,4.65,4.65,0,0,0,3.72,1.41c3.19,0,6-1.17,8.94-3a24.06,24.06,0,0,1,6.05-2.89c2.57-.71,8.31-2,10.85-2.83a17.77,17.77,0,0,0,6.44-3.72c1.42-1.38,3.4-4.05,3.54-5.6-.43-3.36-1.32-5.15-3.39-5.64s-4.9.16-8.62,1.11c-1.12.28-2.52.68-3.12.81-2.28.49-4.39,1-6.1,1.48a9.56,9.56,0,0,1-4.4.45,2.89,2.89,0,0,1-1.78-.92c-.6-.7-1-1.89-1.66-1.73,0,0-11.77,6.46-12.75,6.91S192.13,334.76,192.65,340.37Z" style="fill:#37474f"></path><path d="M219.57,326.11a3.57,3.57,0,0,1,1.27.84,6.73,6.73,0,0,1,1,1.32c.37.61-.37,1-.92.35a8.62,8.62,0,0,0-1.45-1.52,2,2,0,0,0-1.33-.44l-.65.15C217.55,326.25,219,325.94,219.57,326.11Z" style="fill:#fafafa"></path><path d="M213.73,327.33a1.53,1.53,0,0,1,1.29,0,3.12,3.12,0,0,1,1.31,1.08,13.92,13.92,0,0,1,1.11,1.81c.18.41-.79.72-1,.29a17.12,17.12,0,0,0-1-1.63c-.2-.26-1.05-1.22-1.75-1.11l-.3.08c-.05-.14.11-.31.23-.39Z" style="fill:#fafafa"></path><path d="M210.41,328.35a1.24,1.24,0,0,1,.86.2,3.81,3.81,0,0,1,.84.86,7.42,7.42,0,0,1,.94,2c.18.54-.82.72-1,.36a5.73,5.73,0,0,0-1.48-2.56,2.52,2.52,0,0,0-1.11-.63c0-.11.13-.17.23-.19S210.25,328.35,210.41,328.35Z" style="fill:#fafafa"></path><path d="M187.29,319s3.7,11.79,4.83,14.48c.36.86,2.06.67,3,.77a10.13,10.13,0,0,1,3.36.75c2.77,1.48,4.5,1.45,4.59-2.8a1.39,1.39,0,0,1,1.4-1.52,5.89,5.89,0,0,0,2.26-.41c.09-.12,0-.27-.14-.36a4,4,0,0,1-1.69-2.77c-1.15-5-1.75-9.39-3-15.59Z" style="fill:#ffa8a7"></path><path d="M178.39,202.38s5.65,7.11,9.06,20.41a320.43,320.43,0,0,1,7,37.57c.82,5.66,1.42,9.7,2.88,20C198.59,289,204,320.9,204,320.9s-3.94,3.58-7.25,4.9c-3.08,1.22-5.94,1.71-7.07,1.22,0,0-3.8-10.25-8.5-23.67a133.68,133.68,0,0,1-5.41-19c-.61-3.32-.46-9.22-.4-12.2l-25.26-41a28.58,28.58,0,0,1-4.71-8.55c-3.32-8.76.92-21.38.92-21.38Z" style="fill:#263238"></path><path d="M153.54,213.89h31a72.29,72.29,0,0,1,2.9,8.9,304.22,304.22,0,0,1,6.62,34.59c-.76,5.34-1.61,10.81-2.4,14.58-2.09,9.94-3.39,17-5,21.07A66.58,66.58,0,0,1,181,303a131.75,131.75,0,0,1-5.28-18.56c-.61-3.32-.46-9.22-.4-12.2L157,242.42l-1.43-9.22C150.87,225.17,151.39,219.15,153.54,213.89Z"></path><path d="M139,335.64c1.77-3,3.37-7.62,7.28-19.29l14.56,12-9,15.05a15.53,15.53,0,0,0-.66,2.39C149.25,348.69,139,335.64,139,335.64Z" style="fill:#ffa8a7"></path><path d="M133.64,342c0-.17-.06-1.58,0-1.75.38-1.51,1.27-1.93,2.41-2.78a18.46,18.46,0,0,0,3.16-2.83c.38-.56.45-.85,1.05-1.1a5.37,5.37,0,0,1,4.65.64c3.28,1.81,4.28,4,4.1,6.36-.15,1.81-.29,4.21,1.22,5.28.63.45,1.63-2.44,1.63-2.44.93,1.65-.38,3.93-1.06,7.26a14.45,14.45,0,0,0-.1,5.6c.34,2.92.72,2.91,2.2,3.12,1.27.17,4.88-.08,7.08,1.53a5,5,0,0,1,2.22,5.18c-.4,1.12-3.69,6.57-15.71,4.54-3.49-.59-10.82-6.36-10.71-6.89a7.09,7.09,0,0,0,0-1.66c0-1.29-.09-2.58-.14-3.88a20.67,20.67,0,0,0-.21-3.69,22,22,0,0,1-.45-3.05l-.69-7.78C134.18,342.91,133.55,342.74,133.64,342Z" style="fill:#37474f"></path><path d="M132.13,341.49c-1.19,1.2-.46,4.7,1.13,8.9.7,1.87,2,5.07,1.63,8.48s-.45,5,.38,6.62c1.31,2.5,8.3,5.7,12.42,6.7a24.64,24.64,0,0,1-4.19-12.5c-.41-7.53-1-12.38-4.23-15.72C135.13,339.75,132.13,341.49,132.13,341.49Z"></path><path d="M162.18,366.07s-2.42,4.74-11.72,4.59c-3.66-.06-5.62-1.94-5.71-7.79-.11-7.05-.65-14.17-2.82-17.67s-5.63-5.2-8.31-4.95a2.64,2.64,0,0,0-1.49,1.24s2.68-.93,6.86,2.71c3.08,2.69,3.91,8.3,3.87,15.28,0,3-.2,6.4.64,8.68a6.72,6.72,0,0,0,4.44,4.11c5.06,1.49,12-1,13.73-3.21A3.63,3.63,0,0,0,162.18,366.07Z" style="fill:#263238"></path><path d="M151,358.08a2,2,0,0,1,.75,1.16,3.39,3.39,0,0,1-1.46,3.06c-.56.37-1,.24-.16-1A6.36,6.36,0,0,0,151,358.08Z" style="fill:#fafafa"></path><path d="M150.5,354.43s.29.2.37,1.18c0,.52-.74,2.64-1.72,3.14s-.45-.68,0-1.26A8,8,0,0,0,150.5,354.43Z" style="fill:#fafafa"></path><path d="M150.83,350.39s.32.1,0,1.45a4.22,4.22,0,0,1-2,1.87c-.63.08-.94-.26-.16-.85C149.23,352.4,150.71,351.05,150.83,350.39Z" style="fill:#fafafa"></path><path d="M158.8,202.38c-1.48,1.59-5.15,6.91-5.74,15.1a23.42,23.42,0,0,0,4.53,14.92c1.18,18.15,1.16,52.44,1.16,52.44a61.25,61.25,0,0,0-9,19.29C148.12,309.5,142.1,328,142.1,328c9.86-1.39,13.29,10.09,13.29,10.09s10.29-16.28,18.63-29c6.12-9.34,10.23-16.3,12.07-21.81,1.69-5.06,2.91-11.19,4.56-23s3.26-27.38,4.07-39,.34-28.43.34-28.43Z" style="fill:#263238"></path><path d="M144.15,216.62a7,7,0,0,0,3.32-2.48,10.1,10.1,0,0,0,.85-2.57,28.13,28.13,0,0,1,1.4-4.36l.85.4a27.28,27.28,0,0,0-1.34,4.21,10.76,10.76,0,0,1-1,2.84,7.65,7.65,0,0,1-4,2.94C144.2,217.27,144.17,216.94,144.15,216.62Z"></path><path d="M166.34,227a2.43,2.43,0,0,1-.59-.06c-1.36-.32-2.41-1.27-4.52-4.1-1.59-2.15-1.43-3.69-1.16-6.25.1-.94,1-6,1.1-7.28l.9.52c-.07,1.36-1,5.92-1.07,6.87-.27,2.54-.39,3.7,1,5.54,1.94,2.61,2.87,3.48,4,3.74s5.81-.57,7.08-1.49c.72-.54,1.95-7.1,2.66-12.87l.93.12c-.36,2.92-1.65,12.53-3.06,13.56C172.3,226.23,168.23,227.07,166.34,227Z"></path></g><g id="freepik--top--inject-64"><polygon points="172.49 131.53 170.78 144.03 153.8 143.17 155.63 129.63 172.49 131.53" style="fill:#ffa8a7"></polygon><path d="M179.25,108.15c1.3,1.66,5.29,6.17,6,7.35l-3.81,2.31Z" style="fill:#f28f8f"></path><path d="M169.81,95.58c5.24-.56,8.65,3.16,10.17,14.32.06.44.71,1.13,1.2,2.8,2.1,7.17.93,14-.29,15.81-3,2.44-6.42,3.35-11.31,2.94-3.73-.32-13.25-1.46-18.08-6.49C145.83,119,143,110.1,147,105.46,152.67,98.94,166.91,95.89,169.81,95.58Z" style="fill:#ffa8a7"></path><path d="M180.89,128.51c-.67,1-5.47,3.46-8.49,3.66l.28-2.35A31.62,31.62,0,0,0,180.89,128.51Z" style="fill:#f28f8f"></path><path d="M170.84,115.15a1,1,0,0,1-1.75.29,13.08,13.08,0,0,0-1.92-2.22,4.74,4.74,0,0,0-3.24-1.09c-4.4.33-3.33,6.13-1.17,8.15,3.54,3.31,5.42.45,5.42.45s2.54,5.62-1.16,8.9c0,0-6.39,2.76-11.41,1.2a45.54,45.54,0,0,1-9.33-9.77c-6-8.25-5.46-16.72-1.62-19-.22-2.93,1.37-7.33,7.38-9.87,5.72-2.42,9.56-2.18,13.7-2s9.23,2.12,13.08-1.09a7.88,7.88,0,0,1-.64,7.17,2.6,2.6,0,0,1,2.25,4.69,2,2,0,0,1,.93,2.42,2.48,2.48,0,0,1-2.15,1.6,10.77,10.77,0,0,1-2.6-.17c-1.21,3.38-5,4.57-7.3,4.42.07,0,.36.47.4.53s.25.38.36.58a7.36,7.36,0,0,1,.54,1.26,7,7,0,0,1,.32,2.72A2.31,2.31,0,0,1,170.84,115.15Z" style="fill:#263238"></path><path d="M144.89,137.59c-4.41,2.46-7.14,9.35-6.18,19.32,1.13,11.89,3,14.46,4.34,24.38a100.58,100.58,0,0,1,1.1,15.53c0,4.73-.64,14.29-.64,14.29s5.9,7.31,22.11,8.26c20.68,1.22,29.85-3.78,29.85-3.78s.12-21.38-.37-34.73c-.74-19.8-.79-25.59-3.88-32.33-1-2-2.09-6.42-5.46-7.3-2.67-.69-11.75-2.76-14.19-3.13-4,1-14.37,1.11-16.94-1.08l0-.57C150.68,136.66,144.89,137.59,144.89,137.59Z" style="fill:#37474f"></path><path d="M151.29,136.73c2.64-2.36,3-2.68,3.79-3l-.16,1.19s.53,1.42,5.54,1.92c8.71.87,11.45-1.11,11.45-1.11L172,135a3.21,3.21,0,0,1,2.3.79c1.42,1,4.6,3.87,4.6,3.87l-2.27-.5s-5.08,4.43-17.5,2.67C150.49,140.56,151.29,136.73,151.29,136.73Z" style="fill:#263238"></path><path d="M252.63,149a6,6,0,0,1-1.26.44,21.28,21.28,0,0,1-10.91.36,1.73,1.73,0,0,1-1.27-.86,1.85,1.85,0,0,1,0-1l.42-2.48a11.53,11.53,0,0,0,.23-3.1,2.83,2.83,0,0,0-.74-1.77c-.47-.45-.81-.58-1.38-.26a3.16,3.16,0,0,0-.71,1.49c-.69,2.26-1.77,3.22-3,5.86s-2.11,4.32-6.47,8c-1.54,1.3-16.4,11.23-16.4,11.23s-1.78-2.06-10.68-13.63c-6.07-7.9-7.9-9.76-13.73-11,0,0-6.91,8.12-1.89,21.08,1.83,3.48,12.34,14.2,16.3,17.63,6.53,5.65,10.13,7.69,14.82,3.43,5.07-4.6,9-9.41,13.28-14.12,3.69-4,5.29-5.47,8.25-6.54a31.66,31.66,0,0,0,8.91-5.5,7.71,7.71,0,0,0,1.47-1.55c.37-.57.61-1.22,1-1.78a30,30,0,0,1,2.35-2.44,5.68,5.68,0,0,0,1.46-2.91C252.64,149.39,252.71,149.13,252.63,149Z" style="fill:#ffa8a7"></path><path d="M223.93,158.09l3.93-2.92a9.05,9.05,0,0,1,5.09,3.69,15.39,15.39,0,0,1,2.31,6.07l-3,2.65Z" style="fill:#f0f0f0"></path><path d="M186,141.31c5.93,1.27,8,1.93,11,5.56s14.1,19.29,14.1,19.29l14-9.31a12.43,12.43,0,0,1,5.28,3.79A12.27,12.27,0,0,1,233,167.4s-9,10-14.27,15.18S211,188.76,205.32,185s-18.15-16.33-18.15-16.33S176.39,153.66,186,141.31Z" style="fill:#455a64"></path><path d="M237.44,163.73a3.5,3.5,0,0,0,1.82-1.27c.57-1.08,1.36-1.74,1.61-2.94a7.61,7.61,0,0,1,.33-1.33,5,5,0,0,1,1.34-1.72c.51-.48.91-1,1.46-1.51.26-.23.74-.45,1.05-.14a4.18,4.18,0,0,1,.58-1.29c.29-.4,1.09-1.1,1.59-.64a1.31,1.31,0,0,1,.3.46c.48,1,.95,2,1.43,3a3,3,0,0,1,.29.78,2.47,2.47,0,0,1-.67,1.81,3.8,3.8,0,0,1-.85.8c-.39.27-.85.42-1.25.69-.81.55-1.27,1.56-2.16,2-.55.27-1.2.28-1.77.5s-.88.5-1.33.72A13.19,13.19,0,0,1,237.44,163.73Z" style="fill:#b16668"></path><path d="M237.44,163.73a3.5,3.5,0,0,0,1.82-1.27c.57-1.08,1.36-1.74,1.61-2.94a7.61,7.61,0,0,1,.33-1.33,5,5,0,0,1,1.34-1.72c.51-.48.91-1,1.46-1.51.26-.23.74-.45,1.05-.14a4.18,4.18,0,0,1,.58-1.29c.29-.4,1.09-1.1,1.59-.64a1.31,1.31,0,0,1,.3.46c.48,1,.95,2,1.43,3a3,3,0,0,1,.29.78,2.47,2.47,0,0,1-.67,1.81,3.8,3.8,0,0,1-.85.8c-.39.27-.85.42-1.25.69-.81.55-1.27,1.56-2.16,2-.55.27-1.2.28-1.77.5s-.88.5-1.33.72A13.19,13.19,0,0,1,237.44,163.73Z" style="fill:#b16668"></path></g></g><g id="freepik--Thumb--inject-64"><path d="M252.42,142.51c-2,1.37-3.95,1.27-6.68,1.31a16.46,16.46,0,0,0-2.62.16,4.42,4.42,0,0,0-.93.25,6.23,6.23,0,0,0-1,.72c-1.44,1-3.31,1.57-4.31,3.1-.58.88-.77,2-1.35,2.86a11,11,0,0,0-.74,1.09,1.22,1.22,0,0,0,.06,1.25,1.3,1.3,0,0,0,.51.35,3.2,3.2,0,0,0,2.2.07c1.46-.5,2.32-2,3.55-2.91a8.45,8.45,0,0,1,3.18-1.38,12.39,12.39,0,0,1,1.58-.35,6.81,6.81,0,0,1,1.27.11C249,149.3,252.42,142.51,252.42,142.51Z" style="fill:#b16668"></path></g></g><g id="freepik--light-bulb--inject-64"><g id="freepik--light-bulb--inject-64"><g id="freepik--Bulb--inject-64"><g id="freepik--Socket--inject-64"><path d="M226.6,107.19c-1.36-.76-1.37-2,0-2.82a5.4,5.4,0,0,1,4.89-.06c1.36.76,1.38,2,0,2.82A5.43,5.43,0,0,1,226.6,107.19Z" style="fill:#263238"></path><path d="M232.3,106.36h-.56a1.72,1.72,0,0,0-.73-.71,4.38,4.38,0,0,0-4,.06,1.74,1.74,0,0,0-.71.72h-.56l.66,1h0a1.78,1.78,0,0,0,.64.56,4.38,4.38,0,0,0,4-.05,2,2,0,0,0,.63-.57h0Z" style="fill:#263238"></path><path d="M225.42,106.3c-2-1.13-2-3,0-4.17a8,8,0,0,1,7.22-.08c2,1.13,2,3,0,4.17A8,8,0,0,1,225.42,106.3Z" style="fill:#455a64"></path><path d="M225.28,105.62c-2.08-1.17-2.1-3.11-.05-4.32a8.26,8.26,0,0,1,7.5-.08c2.08,1.17,2.1,3.11,0,4.32A8.24,8.24,0,0,1,225.28,105.62Z" style="fill:#37474f"></path><path d="M225.18,104.87c-2.14-1.2-2.16-3.19-.05-4.44a8.52,8.52,0,0,1,7.68-.08c2.14,1.21,2.16,3.19.05,4.44A8.48,8.48,0,0,1,225.18,104.87Z" style="fill:#455a64"></path><path d="M225.07,104.12c-2.18-1.23-2.21-3.27,0-4.55a8.72,8.72,0,0,1,7.88-.08c2.18,1.23,2.21,3.27,0,4.55A8.75,8.75,0,0,1,225.07,104.12Z" style="fill:#37474f"></path><path d="M225,103.37c-2.24-1.27-2.26-3.35-.05-4.66a8.88,8.88,0,0,1,8.06-.08c2.24,1.26,2.26,3.34.05,4.65A8.91,8.91,0,0,1,225,103.37Z" style="fill:#455a64"></path><path d="M224.87,102.61c-2.3-1.29-2.32-3.42-.05-4.76a9.12,9.12,0,0,1,8.25-.09c2.29,1.29,2.31,3.43.05,4.77A9.12,9.12,0,0,1,224.87,102.61Z" style="fill:#37474f"></path></g><path d="M235,97.11a3,3,0,0,0-1.81-2.47,9.53,9.53,0,0,0-8.64.09,3,3,0,0,0-1.76,2.51c0,.35,0,1.72,0,2.07a3,3,0,0,0,1.82,2.48,9.54,9.54,0,0,0,8.63-.09,3,3,0,0,0,1.76-2.52C235.06,98.83,235.05,97.46,235,97.11Z" style="fill:#BA68C8"></path><path d="M228.5,55.49A18.35,18.35,0,0,0,210.33,74c.15,14.58,12.2,16.88,12.27,22.75a3.13,3.13,0,0,0,1.88,2.57,9.92,9.92,0,0,0,9-.09,3.15,3.15,0,0,0,1.83-2.61h0c-.06-5.88,11.94-8.42,11.79-23A18.37,18.37,0,0,0,228.5,55.49Z" style="fill:#BA68C8"></path><path d="M228.5,55.49A18.35,18.35,0,0,0,210.33,74c.15,14.58,12.2,16.88,12.27,22.75a3.13,3.13,0,0,0,1.88,2.57,9.92,9.92,0,0,0,9-.09,3.15,3.15,0,0,0,1.83-2.61h0c-.06-5.88,11.94-8.42,11.79-23A18.37,18.37,0,0,0,228.5,55.49Z" style="fill:#fff;mix-blend-mode:screen;opacity:0.7000000000000001"></path><path d="M225.21,99c-2.08-1.17-2.1-3.11-.05-4.33a8.29,8.29,0,0,1,7.5-.07c2.08,1.17,2.1,3.11,0,4.32A8.27,8.27,0,0,1,225.21,99Z" style="fill:#BA68C8"></path><path d="M225.21,99c-2.08-1.17-2.1-3.11-.05-4.33a8.29,8.29,0,0,1,7.5-.07c2.08,1.17,2.1,3.11,0,4.32A8.27,8.27,0,0,1,225.21,99Z" style="fill:#fff;opacity:0.55"></path><path d="M233.59,98.19a3.81,3.81,0,0,1-.89.69,8.27,8.27,0,0,1-7.49.08,3.64,3.64,0,0,1-.9-.67,3.77,3.77,0,0,1,.88-.7,8.29,8.29,0,0,1,7.5-.08A4.08,4.08,0,0,1,233.59,98.19Z" style="fill:#BA68C8;opacity:0.25"></path><path d="M233.59,98.19a3.81,3.81,0,0,1-.89.69,8.27,8.27,0,0,1-7.49.08,3.64,3.64,0,0,1-.9-.67,3.77,3.77,0,0,1,.88-.7,8.29,8.29,0,0,1,7.5-.08A4.08,4.08,0,0,1,233.59,98.19Z" style="fill:#BA68C8"></path><path d="M233.59,98.19a3.81,3.81,0,0,1-.89.69,8.27,8.27,0,0,1-7.49.08,3.64,3.64,0,0,1-.9-.67,3.77,3.77,0,0,1,.88-.7,8.29,8.29,0,0,1,7.5-.08A4.08,4.08,0,0,1,233.59,98.19Z" style="fill:#fff;opacity:0.35000000000000003"></path><path d="M243,65c-1.16-1.73-3-3.13-5.12-2.19a3.33,3.33,0,0,0-.64.39,2.73,2.73,0,0,0-.87,2.51c.28,1.78,2,2.87,3,4.24a15.74,15.74,0,0,1,2.45,5,9.63,9.63,0,0,0,.63,1.9,1.43,1.43,0,0,0,1.83.59,2.65,2.65,0,0,0,1.16-2A14.05,14.05,0,0,0,243,65Zm.49,13.63a1.5,1.5,0,0,0-1.47,1.06,2,2,0,0,0,.2,1.64,1.19,1.19,0,0,0,1.62.35,1.91,1.91,0,0,0,.86-1.6A1.43,1.43,0,0,0,243.53,78.62Z" style="fill:#fff;opacity:0.35000000000000003"></path><path d="M231.1,98.57h-.22c-.07-6.54.27-10.64,1.13-13.71a13.07,13.07,0,0,1,.87-2.3,11.27,11.27,0,0,1-4.12-2.38,11.33,11.33,0,0,1-4.08,2.47,12.4,12.4,0,0,1,.92,2.28c.92,3,1.35,7.14,1.42,13.68h-.22c-.06-6.51-.49-10.59-1.4-13.62a12.38,12.38,0,0,0-.93-2.28,4.84,4.84,0,0,1-.61.14c-2.13.38-3.38-.22-3.84-.91a1.39,1.39,0,0,1,0-1.58,1.41,1.41,0,0,1,1.45-.59c.93.13,2.1.92,3.09,2.69a11,11,0,0,0,4-2.42,4.68,4.68,0,0,1-.61-.72,3.55,3.55,0,0,1-.59-3.55,1.47,1.47,0,0,1,2.62,0,3.55,3.55,0,0,1-.51,3.56,5.92,5.92,0,0,1-.6.74A11.1,11.1,0,0,0,233,82.37c1-1.78,2.1-2.6,3-2.75a1.4,1.4,0,0,1,1.46.56,1.37,1.37,0,0,1,.06,1.57c-.45.7-1.68,1.33-3.82,1-.2,0-.41-.08-.61-.13a12,12,0,0,0-.88,2.3C231.36,88,231,92.05,231.1,98.57Zm2.1-16.14.54.11c2,.32,3.2-.26,3.61-.9a1.16,1.16,0,0,0,0-1.34,1.2,1.2,0,0,0-1.26-.47C235.22,80,234.11,80.74,233.2,82.43Zm-12-2.47a1.17,1.17,0,0,0-1,.51,1.19,1.19,0,0,0,0,1.35c.43.63,1.6,1.18,3.63.82a5.23,5.23,0,0,0,.54-.12c-1-1.67-2.07-2.42-2.9-2.54Zm7.49-4.8a1.24,1.24,0,0,0-1.11.71,3.44,3.44,0,0,0,.57,3.33,5,5,0,0,0,.59.69,4.87,4.87,0,0,0,.58-.7,3.47,3.47,0,0,0,.51-3.35A1.27,1.27,0,0,0,228.7,75.16Z" style="fill:#455a64"></path></g><path d="M229,52.24a.69.69,0,0,1-.69-.69V44.68a.69.69,0,0,1,1.38,0v6.87A.69.69,0,0,1,229,52.24Z" style="fill:#BA68C8"></path><path d="M240.29,55.29a.73.73,0,0,1-.35-.09.7.7,0,0,1-.25-1l3.43-6a.69.69,0,0,1,1.2.69l-3.43,5.95A.68.68,0,0,1,240.29,55.29Z" style="fill:#BA68C8"></path><path d="M248.53,63.57a.69.69,0,0,1-.6-.34.7.7,0,0,1,.25-.95l5.95-3.44a.69.69,0,1,1,.69,1.2l-5.94,3.44A.73.73,0,0,1,248.53,63.57Z" style="fill:#BA68C8"></path><path d="M258.4,74.86h-6.87a.69.69,0,0,1,0-1.38h6.87a.69.69,0,0,1,0,1.38Z" style="fill:#BA68C8"></path><path d="M254.43,89.58a.73.73,0,0,1-.35-.09l-6-3.43a.7.7,0,0,1-.25-1,.69.69,0,0,1,.94-.25l6,3.43a.68.68,0,0,1,.26.94A.7.7,0,0,1,254.43,89.58Z" style="fill:#BA68C8"></path><path d="M203.43,89.5a.7.7,0,0,1-.6-.35.69.69,0,0,1,.25-.94L209,84.77a.69.69,0,1,1,.69,1.19l-5.94,3.44A.64.64,0,0,1,203.43,89.5Z" style="fill:#BA68C8"></path><path d="M206.38,74.76h-6.87a.7.7,0,0,1,0-1.39h6.87a.69.69,0,1,1,0,1.38Z" style="fill:#BA68C8"></path><path d="M209.43,63.48a.73.73,0,0,1-.35-.09l-6-3.43a.7.7,0,0,1-.25-1,.69.69,0,0,1,.94-.25l6,3.43a.69.69,0,0,1-.34,1.29Z" style="fill:#BA68C8"></path><path d="M217.71,55.24a.7.7,0,0,1-.6-.35L213.67,49a.69.69,0,0,1,1.2-.7l3.44,6a.69.69,0,0,1-.25.94A.64.64,0,0,1,217.71,55.24Z" style="fill:#BA68C8"></path></g></g><g id="freepik--speech-bubbles--inject-64"><g id="freepik--speech-bubble--inject-64"><g id="freepik--speech-bubble--inject-64"><path d="M102.57,77.79a28.56,28.56,0,0,1,13.08,16.5l.78,3.19a28.66,28.66,0,0,1-55.18,14.8l-.93-3.14a28.66,28.66,0,0,1,42.25-31.35Z" style="fill:#fff"></path><path d="M61.26,87.13a31.11,31.11,0,0,0,51,35.27l9.56,1.46a1.8,1.8,0,0,0,1.67-2.92l-6.07-7.52A31.11,31.11,0,0,0,61.26,87.13Zm41.27-9.37a28.58,28.58,0,0,1,13.11,16.48l.78,3.19a28.66,28.66,0,0,1-55.15,14.9l-.94-3.15a28.67,28.67,0,0,1,42.2-31.42Z" style="fill:#455a64"></path></g><g id="freepik--Check--inject-64"><path d="M83.88,119.1a4.53,4.53,0,0,1-3.29-1.42L70.4,106.79A4.5,4.5,0,0,1,77,100.64l6.62,7.07L99.25,87.87a4.5,4.5,0,0,1,7.06,5.57l-18.9,24a4.51,4.51,0,0,1-3.34,1.71Z" style="fill:#BA68C8"></path></g></g><g id="freepik--speech-bubble--inject-64"><g id="freepik--speech-bubble--inject-64"><path d="M392.62,55.86a28.61,28.61,0,0,0-21.06.21l-3,1.4a28.65,28.65,0,0,0,23.18,52.21l3-1.25a28.66,28.66,0,0,0-2.19-52.57Z" style="fill:#fff"></path><path d="M393.55,53.61a31.16,31.16,0,0,0-38,13.12h-9.66a1.81,1.81,0,0,0-1.22,3.15l7.14,6.5a31.11,31.11,0,1,0,41.71-22.77ZM409.07,93a28.55,28.55,0,0,1-14.3,15.46l-3,1.26a28.66,28.66,0,0,1-23.09-52.26l3-1.4A28.67,28.67,0,0,1,409.07,93Z" style="fill:#455a64"></path></g><g id="freepik--check--inject-64"><path d="M378,99.11a4.52,4.52,0,0,1-3.28-1.41L364.5,86.83a4.5,4.5,0,0,1,6.55-6.16l6.64,7,15.62-19.87a4.49,4.49,0,0,1,7.07,5.55l-18.85,24a4.52,4.52,0,0,1-3.34,1.72Z" style="fill:#BA68C8"></path></g></g></g></svg>
